<?xml version="1.0" encoding="iso-8859-1"?>
<!-- Generator: Adobe Illustrator 16.0.0, SVG Export Plug-In . SVG Version: 6.00 Build 0)  -->
<!DOCTYPE svg PUBLIC "-//W3C//DTD SVG 1.1//EN" "http://www.w3.org/Graphics/SVG/1.1/DTD/svg11.dtd">
<svg version="1.1" id="Layer_1" xmlns="http://www.w3.org/2000/svg" xmlns:xlink="http://www.w3.org/1999/xlink" x="0px" y="0px"
	 width="49.138px" height="49.139px" viewBox="0 0 49.138 49.139" style="enable-background:new 0 0 49.138 49.139;"
	 xml:space="preserve">
<g>
	<path style="fill:#C05758;" d="M21.046,23.158c-0.939,0.939-0.593,2.379,0.601,3.573c1.203,1.203,2.616,1.485,3.546,0.556
		c0.94-0.938,0.583-2.37-0.611-3.564C23.479,22.62,22.003,22.201,21.046,23.158z"/>
	<path style="fill:#C05758;" d="M48.749,3.131L46.007,0.39c-0.519-0.519-1.362-0.519-1.882,0l-2.93,2.93
		c-0.26-0.26-0.681-0.26-0.941,0l-2.342,2.342l-7.311,0.23c-0.376,0.012-0.898,0.237-1.166,0.505L0.055,35.777
		c-0.47,0.47,2.126,3.83,5.801,7.504c3.676,3.676,7.035,6.271,7.505,5.803l29.38-29.381c0.269-0.268,0.494-0.791,0.505-1.168
		l0.228-7.224l2.387-2.386c0.261-0.26,0.261-0.681,0-0.941l-0.041-0.041l2.93-2.929C49.268,4.494,49.268,3.65,48.749,3.131z
		 M21.395,33.273c-2.124,2.124-4.54,1.896-6.29,0.146c-2.096-2.096-1.768-4.757,0.092-6.616c0.72-0.721,1.413-1.122,1.786-1.24
		l0.821,1.386c-0.401,0.163-0.903,0.446-1.395,0.938c-1.103,1.104-1.294,2.625,0.073,3.992c1.231,1.231,2.735,1.276,3.975,0.037
		c0.419-0.42,0.792-0.976,0.957-1.358l1.294,0.874C22.58,31.815,22.142,32.526,21.395,33.273z M26.223,28.464
		c-1.822,1.822-4.266,1.513-6.016-0.237c-1.841-1.842-2.041-4.394-0.227-6.208c1.887-1.887,4.329-1.504,6.024,0.191
		C28.019,24.225,28.019,26.668,26.223,28.464z M30.434,25.947l-0.488-0.489l0.043-0.851c0.079-1.43,0.059-2.185-0.336-2.6
		c-0.281-0.281-0.675-0.335-1.074,0.064c-0.298,0.298-0.408,0.708-0.451,1.026l-0.809-0.351c0.064-0.457,0.309-1.021,0.777-1.489
		c0.781-0.782,1.669-0.754,2.296-0.127c0.579,0.58,0.622,1.462,0.568,2.408l-0.052,0.585l0.01,0.01l1.303-1.303l0.665,0.665
		L30.434,25.947z M44.879,7.002L42.137,4.26l2.93-2.93l2.741,2.742L44.879,7.002z"/>
</g>
</svg>
