<?xml version="1.0" encoding="iso-8859-1"?>
<!-- Generator: Adobe Illustrator 16.0.0, SVG Export Plug-In . SVG Version: 6.00 Build 0)  -->
<!DOCTYPE svg PUBLIC "-//W3C//DTD SVG 1.1//EN" "http://www.w3.org/Graphics/SVG/1.1/DTD/svg11.dtd">
<svg version="1.1" id="Layer_1" xmlns="http://www.w3.org/2000/svg" xmlns:xlink="http://www.w3.org/1999/xlink" x="0px" y="0px"
	 width="42.7px" height="28.328px" viewBox="0 0 42.7 28.328" style="enable-background:new 0 0 42.7 28.328;" xml:space="preserve"
	>
<g>
	<path style="fill:#C05758;" d="M11.333,0.841c-0.539-0.238-1.365-0.13-1.84,0.22L0.482,7.718c-0.475,0.35-0.624,1.051-0.336,1.564
		c0.28,0.498,0.616,1.092,0.869,1.525l11.408-9.48C12.023,1.148,11.648,0.982,11.333,0.841z"/>
	<path style="fill:#C05758;" d="M42.309,8.351l-7.923-7.922c-0.417-0.417-1.188-0.553-1.722-0.303
		c-0.437,0.205-0.859,0.406-1.276,0.603L30.361,1.21c-1.344,0.625-2.591,1.175-3.764,1.58c-2.07,0.739-3.758,1.033-5.257,1.074
		c-1.499,0.034-3.028-0.155-4.931-0.783c-0.438-0.178-1.361-0.585-2.356-1.027l-12.13,10.08c0.427,0.583,0.871,1.152,1.353,1.697
		c1.408,1.584,3.052,3.02,4.932,4.258c1.881,1.232,4.012,2.252,6.319,2.941c0.926,0.277,1.881,0.494,2.851,0.655v1.547
		c0,0.294,0.238,0.534,0.533,0.534h1.405v4.562h4.068v-4.562h1.404c0.295,0,0.534-0.24,0.534-0.534v-1.58
		c0.028-0.005,0.059-0.009,0.088-0.013c1.187-0.227,2.345-0.516,3.452-0.891c2.216-0.754,4.237-1.773,6.02-2.972
		c1.788-1.198,3.356-2.548,4.719-4.001c0.539-0.581,1.049-1.174,1.527-1.783l0.645-0.864c0.26-0.363,0.512-0.73,0.746-1.105
		C42.832,9.524,42.724,8.767,42.309,8.351z"/>
</g>
</svg>
