<?xml version="1.0" encoding="iso-8859-1"?>
<!-- Generator: Adobe Illustrator 16.0.0, SVG Export Plug-In . SVG Version: 6.00 Build 0)  -->
<!DOCTYPE svg PUBLIC "-//W3C//DTD SVG 1.1//EN" "http://www.w3.org/Graphics/SVG/1.1/DTD/svg11.dtd">
<svg version="1.1" id="Layer_1" xmlns="http://www.w3.org/2000/svg" xmlns:xlink="http://www.w3.org/1999/xlink" x="0px" y="0px"
	 width="38.339px" height="51.203px" viewBox="0 0 38.339 51.203" style="enable-background:new 0 0 38.339 51.203;"
	 xml:space="preserve">
<g>
	<path style="fill:#C05758;" d="M38.299,35.882l-6.076-6.076c-0.055-0.054-0.055-0.143,0-0.195l0.256-0.257
		c0.055-0.054,0.055-0.142,0-0.195l-0.643-0.644L32.1,28.25l0.092,0.092c0.051,0.051,0.136,0.048,0.189-0.006l0.596-0.596
		c0.054-0.055,0.054-0.143,0-0.196l-0.185-0.185l0.403-0.403l0.189,0.19c0.039,0.04,0.104,0.04,0.144,0l0.213-0.214
		c0.005,0.004,0.009,0.007,0.015,0.011c0.189,0.129,0.386,0.247,0.586,0.346c0.4,0.197,0.811,0.333,1.213,0.411
		c0.403,0.08,0.797,0.109,1.178,0.097c0.15-0.005,0.299-0.017,0.445-0.034l0.205-0.029c0.083-0.015,0.167-0.03,0.248-0.049
		c0.111-0.025,0.198-0.142,0.198-0.254v-2.14c0-0.111-0.086-0.234-0.191-0.272c-0.087-0.031-0.171-0.062-0.254-0.091l-0.203-0.073
		c-0.267-0.098-0.509-0.191-0.722-0.295c-0.379-0.181-0.646-0.369-0.854-0.564c-0.207-0.198-0.388-0.43-0.56-0.771
		c-0.041-0.099-0.132-0.33-0.22-0.563l-2.942-0.271c-0.029,0.169-0.051,0.339-0.062,0.512c-0.023,0.404,0.006,0.82,0.092,1.24
		c0.088,0.421,0.238,0.846,0.455,1.251c0.088,0.161,0.188,0.32,0.297,0.473l-0.209,0.208c-0.039,0.04-0.039,0.105,0.001,0.145
		l0.188,0.189l-0.402,0.402l-0.21-0.209c-0.054-0.055-0.142-0.055-0.195,0l-0.595,0.596c-0.055,0.053-0.058,0.139-0.007,0.188
		c0.05,0.051,0.091,0.092,0.091,0.092l-0.264,0.265l-6.007-6.007c-0.054-0.053-0.112-0.157-0.129-0.231l-0.373-1.607
		c-0.017-0.074-0.075-0.092-0.129-0.037l-2.393,2.394c-0.054,0.053-0.054,0.141,0,0.195l0.423,0.423
		c0.055,0.055,0.045,0.129-0.021,0.168l-2.073,1.225L15.6,20.987l-3.455-8.121c-0.127-1.393-0.85-2.609-1.914-3.397V7.474
		c1.205-0.689,2.018-1.985,2.018-3.473C12.25,1.792,10.458,0,8.249,0c-2.21,0-4.001,1.792-4.001,4.001
		c0,1.359,0.68,2.559,1.716,3.282V8.76c-1.925,0.612-3.32,2.412-3.32,4.54c0,0.493,0,0.739,0,1.232c0,1.066,0,1.966,0,2.804
		l-0.976,3.14c-0.057,0.188-0.081,0.382-0.07,0.578l0.535,9.723c0.041,0.758,0.531,1.385,1.202,1.64l-0.197,4.129L0.069,48.308
		c-0.167,0.64-0.028,1.32,0.376,1.844c0.404,0.523,1.028,0.829,1.689,0.829h3.724c1.179,0,2.134-0.955,2.134-2.134
		s-0.955-2.134-2.134-2.134H4.896l2.427-9.306c0.037-0.144,0.06-0.29,0.067-0.438l0.43-9.041c0.081,0,0.161,0,0.242,0l1.973,8.496
		v12.645c0,1.179,0.956,2.134,2.134,2.134h2.834c1.179,0,2.134-0.955,2.134-2.134s-0.955-2.134-2.134-2.134h-0.7V36.181
		c0-0.162-0.019-0.324-0.055-0.482l-2.078-8.947c0-1.211,0-2.117,0-3.588c0-0.125,0-0.246,0-0.368l0.245,0.245l0.173,0.254
		c0.109,0.157,0.242,0.294,0.402,0.412l0.292,0.202l1.681,1.681c0.044,0.044,0.128,0.08,0.19,0.082l0.714,0.022l2.85,1.97
		c0.318,0.235,0.693,0.359,1.087,0.363c3.397,2.886,6.032,0.301,6.952-0.855l1.992,1.995c0.055,0.053,0.047,0.131-0.017,0.173
		l-3.509,2.33c-0.064,0.042-0.072,0.12-0.018,0.174l1.09,1.091c0.055,0.054,0.15,0.065,0.215,0.023l3.562-2.277
		c0.063-0.042,0.159-0.031,0.214,0.023l0.323,0.323c0.055,0.053,0.142,0.053,0.195,0l0.414-0.414c0.055-0.055,0.142-0.055,0.195,0
		l6.076,6.075c0.054,0.054,0.142,0.054,0.195,0l0.611-0.61C38.354,36.022,38.352,35.936,38.299,35.882z M9.585,13.442
		c-0.06,0.191-0.15,0.39-0.26,0.57l-4.51,7.263l0.513,9.325c0.02,0.355-0.101,0.697-0.338,0.963
		c-0.238,0.265-0.564,0.422-0.92,0.442l-0.075,0.001c-0.708,0-1.292-0.554-1.331-1.26L2.13,21.024
		c-0.007-0.134,0.009-0.267,0.047-0.392l2.69-8.657c0.323-1.039,1.271-1.738,2.358-1.738c0.248,0,0.495,0.038,0.734,0.113
		c0.629,0.195,1.146,0.625,1.453,1.209C9.72,12.144,9.781,12.812,9.585,13.442z M24.637,25.052l0.109,0.108
		c-0.084,0.065-0.165,0.134-0.24,0.211c-0.102,0.107-0.193,0.229-0.249,0.367c-0.058,0.139-0.062,0.294-0.015,0.418
		c0.01-0.134,0.073-0.247,0.16-0.324c0.085-0.08,0.191-0.135,0.302-0.177c0.111-0.043,0.229-0.073,0.347-0.094
		c0.027-0.006,0.054-0.01,0.082-0.014l0.945,0.945c-0.006,0.006-0.011,0.013-0.016,0.018c-0.521,0.521-1.369,0.521-1.889,0
		l-0.498-0.497L24.637,25.052z M18.198,25.541c-0.065,0.039-0.163,0.027-0.216-0.027l-0.64-0.64c-0.02-0.02-0.043-0.03-0.068-0.035
		l-0.032-0.032l-0.038-1.185c-0.001-0.062-0.038-0.146-0.082-0.189l-4.763-4.762c-0.023-0.023-0.092,0.004-0.188,0.061
		c0-1.256,0-2.523,0-4.199c0-0.09,0-0.166,0-0.242l2.998,7.049l4.686,3.223L18.198,25.541z M20.836,27.024
		c-0.184,0.213-0.429,0.356-0.695,0.42L20.836,27.024z M23.311,29.047c-1.029,0.121-2.076-0.239-3.118-1.062
		c0.45-0.091,0.86-0.339,1.138-0.714c0.167-0.226,0.27-0.479,0.322-0.737l1.345-0.809l0.067,0.067l0.416,0.416l0.498,0.497
		c0.629,0.63,1.65,0.63,2.279,0c0.005-0.005,0.01-0.012,0.016-0.018l0.285,0.286C26.028,27.645,24.862,28.867,23.311,29.047z"/>
	<path style="fill:#C05758;" d="M34.662,22.236c-0.041-0.104-0.166-0.202-0.278-0.22l-2.114-0.317
		c-0.111-0.017-0.227,0.058-0.257,0.166c-0.029,0.105-0.063,0.23-0.089,0.323l2.82,0.261C34.714,22.37,34.686,22.297,34.662,22.236z
		"/>
</g>
</svg>
