<?xml version="1.0" encoding="iso-8859-1"?>
<!-- Generator: Adobe Illustrator 16.0.0, SVG Export Plug-In . SVG Version: 6.00 Build 0)  -->
<!DOCTYPE svg PUBLIC "-//W3C//DTD SVG 1.1//EN" "http://www.w3.org/Graphics/SVG/1.1/DTD/svg11.dtd">
<svg version="1.1" id="Layer_1" xmlns="http://www.w3.org/2000/svg" xmlns:xlink="http://www.w3.org/1999/xlink" x="0px" y="0px"
	 width="62.707px" height="62.708px" viewBox="0 0 62.707 62.708" style="enable-background:new 0 0 62.707 62.708;"
	 xml:space="preserve">
<g>
	<path style="fill:#C05758;" d="M56.907,29.753C56.11,16.906,45.802,6.597,32.954,5.8V0h-3.201v5.8
		C16.905,6.597,6.597,16.906,5.8,29.753H0v3.201h5.8C6.597,45.802,16.905,56.11,29.753,56.907v5.801h3.201v-5.801
		C45.802,56.11,56.11,45.802,56.907,32.954h5.8v-3.201H56.907z M29.753,9.01v7.492c-6.961,0.745-12.506,6.29-13.251,13.251H9.009
		C9.796,18.672,18.672,9.797,29.753,9.01z M29.753,53.698C18.672,52.911,9.796,44.036,9.009,32.954h7.493
		c0.745,6.961,6.29,12.507,13.251,13.252V53.698z M31.354,43.092c-6.472,0-11.737-5.265-11.737-11.738
		c0-6.473,5.266-11.738,11.737-11.738s11.737,5.265,11.737,11.738C43.091,37.827,37.825,43.092,31.354,43.092z M32.954,53.698
		v-7.492c6.961-0.745,12.506-6.291,13.251-13.252h7.493C52.911,44.036,44.035,52.911,32.954,53.698z M46.205,29.753
		c-0.745-6.961-6.29-12.506-13.251-13.251V9.01c11.081,0.787,19.957,9.662,20.744,20.744H46.205z"/>
	<circle style="fill:#C05758;" cx="31.354" cy="31.354" r="4.802"/>
</g>
</svg>
