<?xml version="1.0" encoding="iso-8859-1"?>
<!-- Generator: Adobe Illustrator 16.0.0, SVG Export Plug-In . SVG Version: 6.00 Build 0)  -->
<!DOCTYPE svg PUBLIC "-//W3C//DTD SVG 1.1//EN" "http://www.w3.org/Graphics/SVG/1.1/DTD/svg11.dtd">
<svg version="1.1" id="Layer_1" xmlns="http://www.w3.org/2000/svg" xmlns:xlink="http://www.w3.org/1999/xlink" x="0px" y="0px"
	 width="42.328px" height="51.446px" viewBox="0 0 42.328 51.446" style="enable-background:new 0 0 42.328 51.446;"
	 xml:space="preserve">
<g>
	<path style="fill:#C05758;" d="M39.378,35.435H3.857c-0.875,0-1.588,0.713-1.588,1.59v12.834c0,0.875,0.713,1.588,1.588,1.588
		h35.521c0.875,0,1.588-0.713,1.588-1.588V37.024C40.966,36.147,40.253,35.435,39.378,35.435z M40.512,49.106
		c-0.213-0.036-0.415-0.096-0.579-0.199l-1.239-0.792l-1.239,0.792c-0.16,0.102-0.355,0.166-0.561,0.201v1.884h-0.682v-1.886
		c-0.201-0.035-0.393-0.1-0.549-0.199l-1.238-0.792l-1.24,0.792c-0.162,0.104-0.361,0.168-0.57,0.203v1.882h-0.68v-1.887
		c-0.199-0.036-0.387-0.101-0.54-0.198l-1.24-0.792l-1.239,0.792c-0.164,0.104-0.366,0.172-0.579,0.205v1.88h-0.681v-1.89
		c-0.194-0.035-0.379-0.099-0.529-0.195l-1.24-0.792l-1.239,0.792c-0.167,0.105-0.372,0.173-0.589,0.207v1.878h-0.681v-1.891
		c-0.19-0.037-0.372-0.1-0.521-0.194l-1.24-0.792l-1.239,0.792c-0.168,0.107-0.378,0.176-0.598,0.209v1.876h-0.681v-1.892
		c-0.188-0.038-0.365-0.1-0.511-0.193l-1.24-0.792l-1.239,0.792c-0.171,0.109-0.384,0.178-0.608,0.211v1.874h-0.681v-1.894
		c-0.184-0.037-0.357-0.1-0.502-0.191l-1.239-0.792l-1.239,0.792c-0.174,0.111-0.39,0.181-0.617,0.213v1.872h-0.682v-1.896
		c-0.18-0.039-0.35-0.1-0.492-0.189l-1.24-0.792l-1.239,0.792c-0.176,0.112-0.396,0.184-0.627,0.214v1.871H6.264v-1.897
		c-0.177-0.038-0.343-0.1-0.482-0.188l-1.24-0.792l-1.239,0.792c-0.164,0.104-0.368,0.16-0.58,0.193v-0.684
		c0.081-0.02,0.154-0.045,0.214-0.084l1.422-0.908c0.112-0.071,0.255-0.071,0.367,0l1.422,0.908c0.268,0.171,0.79,0.171,1.058,0
		l1.423-0.908c0.111-0.071,0.254-0.071,0.366,0l1.423,0.908c0.268,0.172,0.789,0.172,1.057,0l1.423-0.908
		c0.111-0.071,0.254-0.071,0.366,0l1.423,0.908c0.268,0.171,0.789,0.172,1.057,0l1.423-0.908c0.111-0.071,0.255-0.071,0.366,0
		l1.423,0.908c0.268,0.171,0.789,0.172,1.058,0l1.422-0.908c0.111-0.071,0.254-0.071,0.366,0l1.424,0.908
		c0.268,0.171,0.788,0.171,1.057,0l1.422-0.908c0.111-0.071,0.256-0.071,0.367,0l1.422,0.908c0.269,0.171,0.789,0.171,1.059,0
		l1.422-0.908c0.111-0.071,0.255-0.071,0.366,0l1.423,0.908c0.268,0.172,0.789,0.172,1.058,0l1.423-0.908
		c0.111-0.071,0.255-0.071,0.366,0l1.422,0.908c0.269,0.171,0.789,0.172,1.058,0l1.423-0.908c0.056-0.035,0.12-0.054,0.184-0.054
		s0.127,0.019,0.183,0.054l1.422,0.908c0.061,0.039,0.135,0.064,0.214,0.085V49.106z M40.512,45.809
		c-0.079,0.021-0.153,0.046-0.214,0.085l-1.422,0.908c-0.111,0.071-0.255,0.071-0.366,0l-1.423-0.908
		c-0.269-0.172-0.789-0.172-1.058,0l-1.422,0.908c-0.111,0.071-0.255,0.071-0.366,0l-1.423-0.908c-0.269-0.172-0.79-0.172-1.058,0
		l-1.423,0.908c-0.111,0.071-0.255,0.071-0.366,0l-1.423-0.908c-0.268-0.172-0.788-0.172-1.058,0l-1.422,0.908
		c-0.111,0.071-0.256,0.071-0.367,0l-1.422-0.908c-0.269-0.172-0.789-0.172-1.057,0L21.8,46.802c-0.111,0.071-0.254,0.071-0.366,0
		l-1.423-0.908c-0.269-0.172-0.79-0.172-1.057,0l-1.423,0.908c-0.111,0.071-0.255,0.071-0.366,0l-1.423-0.908
		c-0.269-0.172-0.789-0.172-1.057,0l-1.423,0.908c-0.111,0.071-0.254,0.071-0.366,0l-1.423-0.908c-0.268-0.172-0.789-0.172-1.057,0
		l-1.423,0.908c-0.111,0.071-0.254,0.071-0.366,0l-1.423-0.908c-0.268-0.172-0.789-0.172-1.058,0l-1.422,0.908
		c-0.112,0.071-0.255,0.071-0.367,0l-1.422-0.908c-0.06-0.039-0.134-0.065-0.214-0.085v-0.683c0.212,0.033,0.417,0.09,0.58,0.193
		l1.239,0.792l1.239-0.792c0.488-0.312,1.302-0.312,1.791,0l1.239,0.792l1.239-0.792c0.488-0.312,1.302-0.312,1.791,0l1.239,0.792
		l1.239-0.792c0.489-0.312,1.302-0.312,1.791,0l1.239,0.792l1.239-0.792c0.489-0.312,1.302-0.312,1.791,0l1.239,0.792l1.24-0.792
		c0.488-0.312,1.301-0.312,1.79,0l1.239,0.792l1.239-0.792c0.488-0.312,1.302-0.312,1.79,0l1.239,0.792l1.24-0.792
		c0.487-0.312,1.302-0.312,1.79,0l1.24,0.792l1.238-0.792c0.488-0.312,1.303-0.312,1.791,0l1.239,0.792l1.239-0.792
		c0.162-0.104,0.367-0.16,0.579-0.193V45.809z M40.512,43.78H2.722v-0.68h37.79V43.78z M40.512,41.755
		c-0.213-0.036-0.415-0.096-0.579-0.199l-1.239-0.791l-1.239,0.791c-0.488,0.312-1.303,0.312-1.791,0l-1.238-0.792l-1.24,0.792
		c-0.488,0.312-1.303,0.312-1.79,0l-1.24-0.792l-1.239,0.792c-0.487,0.312-1.301,0.311-1.789,0l-1.24-0.791l-1.239,0.791
		c-0.489,0.312-1.302,0.312-1.79,0l-1.24-0.791l-1.239,0.791c-0.488,0.312-1.302,0.312-1.79,0l-1.24-0.791l-1.239,0.791
		c-0.489,0.312-1.302,0.312-1.791,0l-1.239-0.792l-1.239,0.792c-0.489,0.312-1.302,0.312-1.79,0l-1.24-0.792l-1.239,0.792
		c-0.488,0.312-1.302,0.311-1.79,0l-1.24-0.791l-1.239,0.791c-0.164,0.104-0.368,0.16-0.58,0.193v-0.684
		c0.081-0.02,0.154-0.046,0.214-0.084l1.422-0.908c0.112-0.07,0.255-0.07,0.367,0l1.422,0.908c0.268,0.171,0.79,0.171,1.058,0
		l1.423-0.908c0.111-0.07,0.254-0.071,0.366,0l1.423,0.908c0.268,0.172,0.789,0.172,1.057,0l1.423-0.908
		c0.111-0.071,0.254-0.071,0.366,0l1.423,0.908c0.268,0.171,0.789,0.171,1.057,0l1.423-0.908c0.111-0.07,0.255-0.07,0.366,0
		l1.423,0.908c0.268,0.171,0.789,0.171,1.058,0l1.422-0.908c0.111-0.07,0.254-0.07,0.366,0l1.424,0.908
		c0.268,0.171,0.788,0.171,1.057,0l1.422-0.908c0.111-0.07,0.256-0.07,0.367,0l1.422,0.908c0.269,0.171,0.789,0.171,1.059,0
		l1.422-0.908c0.111-0.07,0.255-0.071,0.366,0l1.423,0.908c0.268,0.172,0.789,0.172,1.058,0l1.423-0.908
		c0.111-0.071,0.255-0.071,0.366,0l1.422,0.908c0.269,0.171,0.789,0.171,1.058,0l1.423-0.908c0.056-0.035,0.12-0.054,0.184-0.054
		s0.127,0.019,0.183,0.054l1.422,0.908c0.061,0.038,0.135,0.064,0.214,0.084V41.755z M40.512,38.457
		c-0.079,0.021-0.153,0.046-0.214,0.085l-1.422,0.908c-0.111,0.07-0.255,0.071-0.366,0l-1.423-0.908
		c-0.268-0.172-0.789-0.172-1.058,0l-1.422,0.908c-0.111,0.071-0.255,0.071-0.366,0l-1.423-0.908c-0.269-0.172-0.79-0.172-1.058,0
		l-1.423,0.908c-0.111,0.071-0.255,0.071-0.366,0l-1.423-0.908c-0.269-0.172-0.789-0.172-1.058,0L26.07,39.45
		c-0.111,0.071-0.256,0.071-0.367,0l-1.422-0.908c-0.269-0.172-0.789-0.172-1.057,0L21.8,39.45c-0.111,0.071-0.254,0.071-0.366,0
		l-1.423-0.908c-0.269-0.172-0.79-0.172-1.057,0l-1.423,0.908c-0.111,0.071-0.255,0.071-0.366,0l-1.423-0.908
		c-0.268-0.172-0.789-0.172-1.057,0l-1.423,0.908c-0.111,0.071-0.254,0.071-0.366,0l-1.423-0.908c-0.268-0.172-0.789-0.172-1.057,0
		L8.994,39.45c-0.111,0.071-0.254,0.071-0.366,0l-1.423-0.908c-0.268-0.172-0.79-0.172-1.058,0L4.725,39.45
		c-0.112,0.071-0.255,0.071-0.367,0l-1.422-0.908c-0.06-0.039-0.134-0.064-0.214-0.085v-0.683c0.212,0.033,0.417,0.089,0.58,0.193
		l1.239,0.791l1.239-0.791c0.139-0.089,0.306-0.149,0.483-0.188V35.89h0.681v1.864c0.231,0.03,0.451,0.102,0.627,0.214l1.239,0.791
		l1.239-0.791c0.142-0.09,0.312-0.151,0.492-0.189V35.89h0.682v1.865c0.227,0.032,0.442,0.102,0.617,0.213l1.239,0.791l1.239-0.791
		c0.144-0.092,0.318-0.153,0.502-0.191V35.89h0.681v1.867c0.224,0.033,0.437,0.102,0.608,0.211l1.239,0.791l1.239-0.791
		c0.147-0.094,0.324-0.154,0.512-0.192V35.89h0.681v1.869c0.22,0.033,0.43,0.102,0.598,0.209l1.239,0.791l1.24-0.791
		c0.148-0.096,0.329-0.158,0.521-0.195V35.89h0.681v1.871c0.217,0.033,0.422,0.101,0.589,0.207l1.239,0.791l1.239-0.791
		c0.151-0.096,0.336-0.16,0.53-0.196V35.89h0.681v1.873c0.213,0.033,0.415,0.101,0.579,0.205l1.239,0.791l1.24-0.791
		c0.153-0.098,0.341-0.162,0.54-0.198v-1.88h0.68v1.875c0.209,0.035,0.408,0.1,0.57,0.203l1.24,0.791l1.238-0.791
		c0.156-0.1,0.348-0.164,0.549-0.199V35.89h0.682v1.877c0.205,0.035,0.4,0.1,0.561,0.201l1.239,0.791l1.239-0.791
		c0.163-0.104,0.367-0.16,0.579-0.193V38.457z"/>
	<path style="fill:#C05758;" d="M40.74,17.718H5.219c-0.876,0-1.589,0.713-1.589,1.588V32.14c0,0.876,0.713,1.588,1.589,1.588H40.74
		c0.875,0,1.588-0.712,1.588-1.588V19.306C42.328,18.431,41.615,17.718,40.74,17.718z M41.874,31.388
		c-0.212-0.035-0.415-0.094-0.579-0.198l-1.24-0.792l-1.238,0.791c-0.16,0.103-0.355,0.168-0.562,0.203v1.883h-0.681V31.39
		c-0.201-0.037-0.393-0.101-0.549-0.201l-1.238-0.791l-1.24,0.791c-0.162,0.104-0.36,0.17-0.57,0.205v1.881h-0.681v-1.887
		c-0.198-0.036-0.385-0.1-0.539-0.199l-1.239-0.791l-1.239,0.791c-0.165,0.105-0.366,0.172-0.58,0.206v1.88h-0.681v-1.889
		c-0.195-0.037-0.379-0.1-0.529-0.196l-1.24-0.792l-1.239,0.791c-0.167,0.107-0.372,0.174-0.589,0.209v1.877h-0.68v-1.891
		c-0.191-0.037-0.373-0.1-0.521-0.195l-1.239-0.791l-1.239,0.791c-0.169,0.109-0.379,0.176-0.599,0.21v1.876h-0.68v-1.893
		c-0.188-0.037-0.365-0.1-0.512-0.193l-1.239-0.791l-1.239,0.791c-0.172,0.11-0.384,0.18-0.608,0.211v1.875h-0.68V31.38
		c-0.184-0.037-0.358-0.099-0.502-0.191l-1.239-0.791l-1.239,0.791c-0.174,0.111-0.39,0.182-0.617,0.213v1.873h-0.681v-1.896
		c-0.18-0.037-0.35-0.098-0.492-0.189l-1.239-0.791l-1.239,0.791c-0.176,0.113-0.396,0.184-0.626,0.215v1.871H7.625v-1.897
		c-0.177-0.038-0.343-0.099-0.483-0.188l-1.239-0.792l-1.24,0.791c-0.164,0.104-0.368,0.16-0.58,0.194V30.7
		c0.08-0.02,0.153-0.047,0.213-0.084l1.422-0.908c0.111-0.072,0.255-0.072,0.366,0l1.422,0.908c0.268,0.17,0.79,0.17,1.058,0
		l1.422-0.908c0.112-0.072,0.255-0.072,0.367,0l1.423,0.908c0.268,0.17,0.789,0.17,1.057,0l1.423-0.908
		c0.112-0.072,0.254-0.072,0.366,0l1.423,0.908c0.268,0.17,0.789,0.17,1.058,0l1.422-0.908c0.112-0.072,0.255-0.072,0.367,0
		l1.422,0.908c0.268,0.17,0.789,0.17,1.058,0l1.422-0.908c0.112-0.072,0.255-0.072,0.367,0l1.422,0.908
		c0.269,0.17,0.789,0.17,1.058,0l1.422-0.908c0.112-0.072,0.256-0.072,0.367,0l1.422,0.908c0.269,0.17,0.789,0.17,1.059,0
		l1.422-0.908c0.111-0.072,0.254-0.072,0.366,0l1.423,0.908c0.268,0.17,0.789,0.17,1.058,0l1.423-0.908
		c0.111-0.072,0.254-0.072,0.366,0l1.423,0.908c0.268,0.17,0.788,0.17,1.057,0l1.423-0.908c0.056-0.037,0.12-0.055,0.183-0.055
		c0.064,0,0.128,0.018,0.184,0.055l1.422,0.908c0.061,0.037,0.135,0.064,0.214,0.084V31.388z M41.874,28.091
		c-0.079,0.02-0.153,0.047-0.214,0.084l-1.422,0.909c-0.111,0.071-0.255,0.071-0.366,0l-1.423-0.909c-0.269-0.17-0.789-0.17-1.057,0
		l-1.423,0.909c-0.112,0.071-0.255,0.071-0.366,0l-1.423-0.909c-0.269-0.17-0.79-0.17-1.058,0L31.7,29.084
		c-0.112,0.071-0.255,0.071-0.366,0l-1.422-0.909c-0.269-0.17-0.79-0.17-1.059,0l-1.422,0.909c-0.111,0.071-0.255,0.071-0.367,0
		l-1.422-0.909c-0.269-0.171-0.789-0.17-1.058,0l-1.422,0.909c-0.112,0.071-0.255,0.071-0.367,0l-1.422-0.909
		c-0.269-0.17-0.79-0.17-1.058,0l-1.422,0.909c-0.112,0.071-0.255,0.071-0.367,0l-1.422-0.909c-0.269-0.17-0.79-0.17-1.058,0
		l-1.423,0.909c-0.112,0.071-0.254,0.071-0.366,0l-1.423-0.909c-0.268-0.17-0.79-0.17-1.057,0l-1.423,0.909
		c-0.112,0.071-0.255,0.071-0.367,0l-1.422-0.909c-0.268-0.17-0.789-0.17-1.058,0l-1.422,0.909c-0.111,0.071-0.255,0.071-0.366,0
		l-1.422-0.909c-0.06-0.037-0.134-0.064-0.213-0.084v-0.684c0.211,0.035,0.416,0.09,0.58,0.195l1.24,0.791l1.239-0.791
		c0.487-0.312,1.302-0.312,1.791,0l1.239,0.791l1.239-0.791c0.488-0.312,1.302-0.312,1.791,0l1.239,0.791l1.239-0.791
		c0.488-0.312,1.302-0.312,1.791,0l1.239,0.791l1.239-0.791c0.488-0.312,1.302-0.312,1.791,0l1.239,0.791l1.239-0.791
		c0.488-0.312,1.302-0.312,1.79,0l1.239,0.791l1.239-0.791c0.488-0.312,1.302-0.312,1.791,0l1.239,0.791l1.239-0.791
		c0.487-0.312,1.302-0.312,1.79,0l1.24,0.791l1.238-0.791c0.488-0.312,1.303-0.312,1.791,0l1.238,0.791l1.24-0.791
		c0.162-0.105,0.367-0.16,0.579-0.195V28.091z M41.874,26.063H4.084v-0.68h37.79V26.063z M41.874,24.037
		c-0.212-0.036-0.415-0.095-0.579-0.199l-1.24-0.792l-1.238,0.792c-0.489,0.312-1.303,0.312-1.791,0l-1.238-0.792l-1.24,0.792
		c-0.488,0.312-1.303,0.312-1.79,0l-1.239-0.792l-1.239,0.792c-0.489,0.312-1.302,0.312-1.79,0l-1.24-0.792l-1.239,0.792
		c-0.488,0.312-1.302,0.312-1.79,0l-1.239-0.792l-1.239,0.792c-0.489,0.312-1.302,0.312-1.791,0l-1.239-0.792l-1.239,0.792
		c-0.489,0.312-1.303,0.312-1.791,0l-1.239-0.792l-1.239,0.792c-0.488,0.312-1.302,0.312-1.791,0l-1.239-0.792l-1.239,0.792
		c-0.488,0.312-1.302,0.312-1.791,0l-1.239-0.792l-1.24,0.792c-0.164,0.104-0.368,0.16-0.58,0.194v-0.684
		c0.08-0.019,0.153-0.046,0.213-0.083l1.422-0.909c0.111-0.071,0.255-0.071,0.366,0l1.422,0.909c0.268,0.17,0.79,0.17,1.058,0
		l1.422-0.909c0.112-0.071,0.255-0.071,0.367,0l1.423,0.909c0.268,0.171,0.789,0.171,1.057,0l1.423-0.909
		c0.112-0.071,0.254-0.071,0.366,0l1.423,0.909c0.268,0.17,0.789,0.17,1.058,0l1.422-0.909c0.112-0.071,0.255-0.071,0.367,0
		l1.422,0.909c0.268,0.17,0.789,0.17,1.058,0l1.422-0.909c0.112-0.071,0.255-0.071,0.367,0l1.422,0.909
		c0.269,0.17,0.789,0.17,1.058,0l1.422-0.909c0.112-0.071,0.256-0.071,0.367,0l1.422,0.909c0.269,0.17,0.789,0.17,1.059,0
		l1.422-0.909c0.111-0.071,0.254-0.071,0.366,0l1.423,0.909c0.268,0.171,0.789,0.171,1.058,0l1.423-0.909
		c0.111-0.071,0.254-0.071,0.366,0l1.423,0.909c0.268,0.17,0.788,0.17,1.057,0l1.423-0.909c0.056-0.035,0.12-0.054,0.183-0.054
		c0.064,0,0.128,0.019,0.184,0.054l1.422,0.909c0.061,0.037,0.135,0.064,0.214,0.083V24.037z M41.874,20.74
		c-0.079,0.019-0.153,0.046-0.214,0.084l-1.422,0.908c-0.111,0.072-0.255,0.072-0.366,0l-1.423-0.909
		c-0.268-0.171-0.789-0.172-1.057,0l-1.423,0.909c-0.112,0.071-0.255,0.071-0.366,0l-1.423-0.909c-0.269-0.171-0.79-0.171-1.058,0
		L31.7,21.732c-0.112,0.071-0.255,0.071-0.366,0l-1.422-0.909c-0.27-0.172-0.79-0.171-1.059,0l-1.422,0.909
		c-0.111,0.071-0.255,0.071-0.367,0l-1.422-0.909c-0.269-0.172-0.789-0.171-1.058,0l-1.422,0.909c-0.112,0.071-0.255,0.071-0.367,0
		l-1.422-0.909c-0.269-0.171-0.79-0.172-1.058,0l-1.422,0.909c-0.112,0.071-0.255,0.071-0.367,0l-1.422-0.909
		c-0.269-0.171-0.79-0.172-1.058,0l-1.423,0.909c-0.112,0.071-0.254,0.071-0.366,0l-1.423-0.909c-0.268-0.171-0.79-0.171-1.057,0
		l-1.423,0.909c-0.112,0.071-0.255,0.071-0.367,0l-1.422-0.909c-0.268-0.172-0.79-0.171-1.058,0l-1.422,0.909
		c-0.111,0.071-0.255,0.071-0.366,0l-1.422-0.909c-0.06-0.038-0.134-0.064-0.213-0.084v-0.683c0.211,0.033,0.416,0.089,0.58,0.194
		l1.24,0.791l1.239-0.791c0.139-0.089,0.306-0.15,0.483-0.188v-1.892h0.681v1.865c0.23,0.031,0.45,0.102,0.626,0.214l1.239,0.792
		l1.239-0.792c0.142-0.091,0.312-0.152,0.492-0.189v-1.89h0.681v1.867c0.227,0.031,0.443,0.102,0.617,0.212l1.239,0.792l1.239-0.792
		c0.144-0.092,0.318-0.153,0.502-0.191v-1.888h0.68v1.868c0.224,0.033,0.436,0.102,0.608,0.211l1.239,0.791l1.239-0.791
		c0.147-0.094,0.324-0.156,0.512-0.193v-1.886h0.68v1.87c0.22,0.034,0.429,0.102,0.598,0.209l1.24,0.791l1.239-0.791
		c0.148-0.095,0.33-0.158,0.521-0.195v-1.884h0.68v1.871c0.217,0.034,0.422,0.101,0.589,0.208l1.239,0.791l1.239-0.791
		c0.151-0.097,0.335-0.16,0.53-0.197v-1.882h0.681v1.873c0.214,0.035,0.415,0.101,0.58,0.206l1.239,0.792l1.239-0.792
		c0.153-0.099,0.341-0.162,0.539-0.199v-1.88h0.681v1.875c0.21,0.035,0.408,0.101,0.57,0.204l1.24,0.792l1.238-0.792
		c0.156-0.1,0.348-0.164,0.549-0.2v-1.879h0.681v1.877c0.206,0.035,0.401,0.101,0.562,0.202l1.238,0.791l1.24-0.791
		c0.164-0.104,0.367-0.16,0.579-0.194V20.74z"/>
	<path style="fill:#C05758;" d="M38.697,14.422V1.588C38.697,0.712,37.984,0,37.109,0H1.588C0.712,0,0,0.712,0,1.588v12.834
		c0,0.875,0.712,1.588,1.588,1.588h35.521C37.984,16.01,38.697,15.298,38.697,14.422z M0.454,2.338
		c0.212,0.034,0.417,0.09,0.58,0.194l1.239,0.792l1.24-0.792c0.139-0.088,0.306-0.149,0.483-0.188V0.454h0.68v1.864
		c0.231,0.031,0.45,0.102,0.627,0.214l1.24,0.792l1.239-0.792c0.142-0.09,0.312-0.151,0.492-0.189v-1.89h0.681V2.32
		c0.227,0.032,0.443,0.102,0.618,0.212l1.239,0.792l1.239-0.792c0.144-0.092,0.318-0.153,0.501-0.191V0.454h0.682v1.868
		c0.223,0.033,0.436,0.102,0.607,0.211l1.239,0.792l1.24-0.792c0.146-0.093,0.323-0.155,0.511-0.193V0.454h0.68v1.87
		c0.221,0.033,0.43,0.101,0.599,0.209l1.239,0.792l1.239-0.792c0.149-0.095,0.329-0.158,0.52-0.195V0.454h0.681v1.872
		c0.217,0.033,0.422,0.101,0.589,0.207l1.239,0.792l1.239-0.792c0.151-0.096,0.336-0.16,0.53-0.196V0.454h0.681v1.873
		c0.213,0.034,0.415,0.101,0.579,0.206l1.239,0.792l1.24-0.792c0.153-0.098,0.341-0.162,0.539-0.198v-1.88h0.68v1.875
		c0.211,0.035,0.41,0.1,0.571,0.204l1.239,0.792l1.239-0.792c0.156-0.1,0.347-0.164,0.549-0.2V0.454h0.681V2.33
		c0.205,0.036,0.401,0.101,0.561,0.202l1.24,0.792l1.238-0.791c0.164-0.104,0.367-0.161,0.58-0.194v0.683
		c-0.08,0.02-0.154,0.046-0.214,0.085l-1.422,0.908c-0.112,0.071-0.255,0.071-0.366,0l-1.423-0.908
		c-0.269-0.172-0.789-0.172-1.058,0l-1.422,0.908c-0.111,0.071-0.256,0.071-0.367,0l-1.423-0.908c-0.268-0.172-0.789-0.172-1.058,0
		L28.07,4.015c-0.111,0.071-0.255,0.071-0.367,0l-1.422-0.908c-0.269-0.172-0.789-0.172-1.057,0l-1.423,0.908
		c-0.112,0.071-0.255,0.071-0.366,0l-1.424-0.908c-0.268-0.172-0.79-0.172-1.057,0l-1.422,0.908c-0.111,0.071-0.255,0.071-0.366,0
		l-1.422-0.908c-0.268-0.172-0.79-0.172-1.058,0l-1.423,0.908c-0.111,0.071-0.254,0.071-0.366,0l-1.423-0.908
		c-0.268-0.172-0.789-0.172-1.057,0l-1.423,0.908c-0.111,0.071-0.254,0.071-0.366,0L9.205,3.106c-0.268-0.172-0.789-0.172-1.057,0
		L6.725,4.015c-0.112,0.071-0.255,0.071-0.367,0L4.936,3.106c-0.269-0.172-0.79-0.172-1.058,0L2.456,4.015
		c-0.112,0.071-0.254,0.071-0.367,0L0.667,3.106c-0.06-0.039-0.133-0.065-0.213-0.085V2.338z M0.454,5.63
		c0.08-0.019,0.154-0.045,0.213-0.084l1.422-0.908c0.113-0.071,0.255-0.071,0.367,0l1.422,0.908c0.268,0.17,0.789,0.171,1.058,0
		l1.422-0.908c0.111-0.071,0.255-0.072,0.367,0l1.422,0.908c0.268,0.171,0.789,0.171,1.058,0l1.423-0.908
		c0.111-0.072,0.254-0.072,0.366,0l1.423,0.908c0.268,0.171,0.79,0.17,1.058,0l1.422-0.908c0.112-0.071,0.255-0.071,0.366,0
		l1.423,0.908c0.268,0.171,0.789,0.17,1.058,0l1.422-0.908c0.111-0.071,0.255-0.071,0.366,0l1.422,0.908
		c0.268,0.17,0.789,0.171,1.058,0l1.423-0.908c0.111-0.071,0.254-0.071,0.366,0l1.423,0.908c0.268,0.17,0.788,0.171,1.057,0
		l1.422-0.908c0.112-0.071,0.256-0.072,0.367,0l1.422,0.908c0.269,0.171,0.789,0.171,1.059,0l1.422-0.908
		c0.111-0.072,0.256-0.072,0.367,0l1.422,0.908c0.269,0.171,0.789,0.17,1.059,0l1.422-0.908c0.056-0.036,0.119-0.054,0.184-0.054
		c0.062,0,0.127,0.018,0.183,0.054l1.423,0.908c0.059,0.039,0.133,0.065,0.213,0.084v0.689c-0.213-0.036-0.416-0.095-0.58-0.199
		l-1.238-0.792l-1.24,0.792c-0.488,0.312-1.303,0.312-1.79,0l-1.239-0.792L30.917,6.12c-0.489,0.312-1.302,0.312-1.79,0l-1.24-0.792
		L26.647,6.12c-0.488,0.312-1.302,0.311-1.79,0l-1.239-0.792L22.378,6.12c-0.489,0.312-1.303,0.312-1.791,0l-1.239-0.792
		L18.109,6.12c-0.489,0.312-1.303,0.312-1.79,0l-1.24-0.792L13.841,6.12c-0.489,0.312-1.303,0.312-1.791,0l-1.239-0.792L9.572,6.12
		c-0.489,0.312-1.303,0.312-1.791,0L6.542,5.328L5.302,6.12C4.814,6.432,4,6.431,3.512,6.12l-1.24-0.792L1.034,6.12
		C0.87,6.224,0.666,6.28,0.454,6.314V5.63z M0.454,7.665h37.79v0.681H0.454V7.665z M0.454,9.69c0.212,0.034,0.417,0.089,0.58,0.194
		l1.239,0.792l1.24-0.792c0.488-0.312,1.301-0.312,1.79,0l1.24,0.792l1.239-0.792c0.488-0.312,1.301-0.312,1.791,0l1.239,0.792
		l1.239-0.792c0.488-0.312,1.302-0.312,1.791,0l1.239,0.792l1.24-0.792c0.488-0.312,1.302-0.312,1.79,0l1.239,0.792l1.239-0.792
		c0.487-0.312,1.301-0.312,1.791,0l1.239,0.792l1.239-0.792c0.488-0.312,1.302-0.312,1.79,0l1.239,0.792l1.24-0.792
		c0.488-0.312,1.301-0.312,1.79,0l1.239,0.792l1.239-0.792c0.487-0.312,1.302-0.312,1.79,0l1.24,0.792l1.238-0.792
		c0.164-0.104,0.367-0.16,0.58-0.194v0.684c-0.08,0.019-0.154,0.046-0.213,0.084l-1.423,0.909c-0.112,0.072-0.255,0.072-0.366,0
		l-1.423-0.909c-0.269-0.171-0.789-0.171-1.058,0l-1.422,0.909c-0.111,0.072-0.256,0.072-0.367,0l-1.423-0.909
		c-0.268-0.171-0.789-0.171-1.058,0l-1.422,0.909c-0.111,0.072-0.255,0.072-0.367,0l-1.422-0.909c-0.269-0.171-0.789-0.171-1.057,0
		l-1.423,0.909c-0.112,0.072-0.255,0.072-0.366,0l-1.424-0.909c-0.268-0.171-0.79-0.171-1.057,0l-1.422,0.909
		c-0.111,0.072-0.255,0.072-0.366,0l-1.422-0.909c-0.269-0.171-0.79-0.171-1.058,0l-1.423,0.909c-0.111,0.072-0.254,0.072-0.366,0
		l-1.423-0.909c-0.268-0.171-0.789-0.171-1.057,0l-1.423,0.909c-0.111,0.072-0.254,0.072-0.366,0l-1.423-0.909
		c-0.268-0.171-0.789-0.171-1.057,0l-1.422,0.909c-0.112,0.072-0.255,0.072-0.367,0l-1.422-0.909c-0.269-0.171-0.789-0.171-1.058,0
		l-1.422,0.909c-0.112,0.072-0.254,0.072-0.367,0l-1.422-0.909c-0.06-0.038-0.133-0.065-0.213-0.084V9.69z M35.185,13.471
		c-0.159,0.102-0.355,0.167-0.561,0.202v1.883h-0.681v-1.885c-0.202-0.036-0.393-0.1-0.549-0.2l-1.239-0.791l-1.239,0.791
		c-0.161,0.104-0.36,0.169-0.571,0.204v1.882h-0.68V13.67c-0.198-0.037-0.386-0.101-0.539-0.199l-1.24-0.791l-1.239,0.791
		c-0.164,0.105-0.366,0.171-0.579,0.206v1.879h-0.681v-1.889c-0.194-0.036-0.379-0.099-0.53-0.196l-1.239-0.792l-1.239,0.791
		c-0.167,0.106-0.372,0.173-0.589,0.208v1.878h-0.681v-1.891c-0.19-0.037-0.371-0.1-0.52-0.195l-1.239-0.791l-1.239,0.791
		c-0.169,0.108-0.378,0.176-0.599,0.209v1.876h-0.68v-1.892c-0.188-0.038-0.365-0.1-0.511-0.193l-1.24-0.791l-1.239,0.791
		c-0.172,0.11-0.385,0.178-0.608,0.211v1.874h-0.682v-1.894c-0.184-0.038-0.357-0.1-0.501-0.192l-1.239-0.791l-1.239,0.791
		c-0.175,0.111-0.391,0.181-0.618,0.213v1.873H8.273v-1.896c-0.181-0.038-0.351-0.1-0.492-0.19L6.542,12.68l-1.24,0.791
		c-0.177,0.113-0.396,0.184-0.627,0.214v1.871h-0.68v-1.898c-0.177-0.038-0.344-0.099-0.483-0.187l-1.24-0.792l-1.239,0.791
		c-0.164,0.104-0.368,0.16-0.58,0.194v-0.684c0.08-0.019,0.154-0.045,0.213-0.083l1.422-0.908c0.113-0.072,0.255-0.072,0.367,0
		l1.422,0.908c0.268,0.171,0.789,0.171,1.058,0l1.422-0.908c0.111-0.072,0.255-0.072,0.367,0l1.422,0.908
		c0.268,0.171,0.789,0.171,1.058,0l1.423-0.908c0.111-0.072,0.254-0.072,0.366,0l1.423,0.908c0.268,0.171,0.79,0.171,1.058,0
		l1.422-0.908c0.112-0.072,0.255-0.072,0.366,0l1.423,0.908c0.268,0.171,0.789,0.171,1.058,0l1.422-0.908
		c0.111-0.072,0.255-0.072,0.366,0l1.422,0.908c0.268,0.171,0.789,0.171,1.058,0l1.423-0.908c0.111-0.072,0.254-0.072,0.366,0
		l1.423,0.908c0.268,0.171,0.788,0.171,1.057,0l1.422-0.908c0.112-0.072,0.256-0.072,0.367,0l1.422,0.908
		c0.269,0.171,0.789,0.171,1.059,0l1.422-0.908c0.111-0.072,0.256-0.072,0.367,0l1.422,0.908c0.269,0.171,0.789,0.171,1.059,0
		l1.422-0.908c0.056-0.036,0.119-0.054,0.184-0.054c0.062,0,0.127,0.018,0.183,0.054l1.423,0.908
		c0.059,0.038,0.133,0.064,0.213,0.084v0.688c-0.213-0.036-0.416-0.095-0.58-0.199l-1.238-0.792L35.185,13.471z"/>
</g>
</svg>
