<?xml version="1.0" encoding="iso-8859-1"?>
<!-- Generator: Adobe Illustrator 16.0.0, SVG Export Plug-In . SVG Version: 6.00 Build 0)  -->
<!DOCTYPE svg PUBLIC "-//W3C//DTD SVG 1.1//EN" "http://www.w3.org/Graphics/SVG/1.1/DTD/svg11.dtd">
<svg version="1.1" id="Layer_1" xmlns="http://www.w3.org/2000/svg" xmlns:xlink="http://www.w3.org/1999/xlink" x="0px" y="0px"
	 width="37.988px" height="45.456px" viewBox="0 0 37.988 45.456" style="enable-background:new 0 0 37.988 45.456;"
	 xml:space="preserve">
<path style="fill:#C05758;" d="M37.988,33.084v-3.559H37.59v-4.317c0-0.56-0.307-1.348-0.685-1.76
	c-0.463-0.504-1.121-1.22-1.85-2.015c-1.399-1.523-2.535-5.028-2.535-7.829V2.36c0-0.507-0.377-0.908-0.862-0.983l0.122-0.454
	L28.34,0l-0.367,1.374c-0.53,0.066-1.167,0.33-1.523,0.661l-3.804,3.525c-2.053,1.902-5.382,1.902-7.436,0l-3.802-3.525
	c-0.269-0.249-0.695-0.456-1.116-0.575L9.9,0L6.461,0.923l0.114,0.424H6.351C5.79,1.347,5.336,1.8,5.336,2.36v11.244
	c0,2.801-1.134,6.306-2.535,7.829l-1.848,2.015c-0.379,0.412-0.687,1.2-0.687,1.76v4.317H0v3.559h0.267v3.335H0v3.561h0.267v4.463
	c0,0.56,0.454,1.014,1.015,1.014h35.296c0.56,0,1.013-0.454,1.013-1.014v-4.463h0.398v-3.561H37.59v-3.335H37.988z M12.536,39.445
	H0.533v-2.493h12.003V39.445z M12.536,32.551H0.533v-2.493h12.003V32.551z M10.222,12.894L7.114,1.3l2.409-0.646l3.106,11.595
	L10.222,12.894z M28.718,0.653L31.127,1.3l-3.106,11.594l-2.408-0.646L28.718,0.653z M37.455,39.445H25.452v-2.493h12.003V39.445z
	 M37.455,32.551H25.452v-2.493h12.003V32.551z"/>
</svg>
