<?xml version="1.0" encoding="iso-8859-1"?>
<!-- Generator: Adobe Illustrator 16.0.0, SVG Export Plug-In . SVG Version: 6.00 Build 0)  -->
<!DOCTYPE svg PUBLIC "-//W3C//DTD SVG 1.1//EN" "http://www.w3.org/Graphics/SVG/1.1/DTD/svg11.dtd">
<svg version="1.1" id="Layer_1" xmlns="http://www.w3.org/2000/svg" xmlns:xlink="http://www.w3.org/1999/xlink" x="0px" y="0px"
	 width="49.863px" height="46.188px" viewBox="0 0 49.863 46.188" style="enable-background:new 0 0 49.863 46.188;"
	 xml:space="preserve">
<g>
	<path style="fill:#C05758;" d="M48.89,2.502c0.164-0.095,0.221-0.305,0.126-0.469l-1.074-1.861c-0.096-0.164-0.306-0.22-0.47-0.125
		l-17.04,9.838c-0.042,0.172-0.1,0.343-0.191,0.504l-0.89,1.541l1.605,0.927L48.89,2.502z"/>
	<path style="fill:#C05758;" d="M30.216,23.711l-3.693-2.133l2.41,7.17c0.061,0.181,0.242,0.25,0.406,0.154l1.541-0.889
		c-0.28-0.457-0.497-0.955-0.64-1.486C29.99,25.59,29.986,24.625,30.216,23.711z"/>
	<path style="fill:#C05758;" d="M15.881,27.939c-0.006,0.004-0.012,0.009-0.018,0.013l-1.517,0.875l-1.69-2.929l0.33-0.191
		c0.103,0.244,0.214,0.483,0.353,0.713c0.19,0.311,0.423,0.611,0.722,0.834c0.294,0.228,0.666,0.341,0.994,0.305
		c-0.316-0.111-0.544-0.335-0.676-0.593c-0.138-0.259-0.201-0.548-0.232-0.841s-0.026-0.595-0.002-0.894
		c0.007-0.067,0.013-0.136,0.021-0.205l1.985-1.146l2.223-7.007l-0.168-0.097c-0.438-0.251-0.757-0.661-0.896-1.152L4.957,22.757
		c-0.165,0.095-0.452,0.167-0.643,0.161l-4.102-0.139c-0.189-0.006-0.267,0.122-0.172,0.286l4.209,7.291
		c0.095,0.164,0.305,0.221,0.469,0.125l1.29-0.744c0.165-0.096,0.34-0.024,0.391,0.158l3.286,11.791
		c0.051,0.183-0.04,0.408-0.205,0.502l-1.949,1.125c-0.163,0.096-0.22,0.307-0.126,0.471l1.29,2.232
		c0.094,0.164,0.304,0.221,0.47,0.125l2.23-1.289c0.166-0.095,0.374-0.305,0.469-0.471l1.582-2.793
		c0.093-0.166,0.303-0.375,0.467-0.471l2.076-1.199l-0.006-0.021l-0.198-0.689l-2.566-8.935l0.205-0.118l1.269-0.732l1.515-0.874
		c0.082-0.047,0.146-0.108,0.224-0.161l-0.032-0.018C16.199,28.254,16.026,28.107,15.881,27.939z"/>
	<path style="fill:#C05758;" d="M49.65,22.779l-4.102,0.139c-0.191,0.006-0.478-0.066-0.643-0.161L26.607,12.193l0.466-0.806
		c0,0,0.125,0.072,0.278,0.161c0.155,0.089,0.356,0.028,0.451-0.137l1.049-1.815c0.094-0.165,0.037-0.375-0.127-0.47l-2.875-1.661
		c-0.165-0.095-0.375-0.038-0.47,0.126l-1.049,1.815c-0.095,0.165-0.046,0.37,0.108,0.458l0.277,0.161l-0.465,0.806l-1.96-1.131
		c-0.165-0.095-0.375-0.039-0.47,0.125l-0.451,0.781c-0.095,0.165-0.305,0.221-0.47,0.126L2.389,0.046
		c-0.163-0.095-0.373-0.039-0.47,0.125L0.845,2.033C0.751,2.197,0.807,2.407,0.972,2.502l18.512,10.688
		c0.164,0.096,0.221,0.305,0.126,0.47l-0.729,1.262c-0.095,0.165-0.039,0.375,0.126,0.47l0.985,0.569
		c0.163,0.094,0.25,0.318,0.193,0.499l-3.181,10.026c-0.058,0.181,0.029,0.404,0.193,0.499l3.324,1.919
		c0.165,0.096,0.347,0.026,0.407-0.154l3.338-9.931c0.06-0.18,0.243-0.249,0.406-0.154l6.074,3.506l0.602,0.348l0.871,0.502
		c-0.01,0.018-0.022,0.033-0.032,0.051c-1.108,1.918-0.451,4.37,1.467,5.478l1.515,0.874l1.27,0.732l0.204,0.118l-2.566,8.935
		l-0.197,0.689l-0.007,0.021l2.077,1.199c0.164,0.096,0.373,0.305,0.467,0.471l1.581,2.793c0.095,0.166,0.304,0.376,0.469,0.471
		l2.231,1.289c0.166,0.096,0.375,0.039,0.47-0.125l1.29-2.232c0.094-0.164,0.037-0.375-0.126-0.471l-1.949-1.125
		c-0.165-0.094-0.256-0.319-0.205-0.502l3.285-11.791c0.052-0.183,0.227-0.254,0.391-0.158l1.29,0.744
		c0.164,0.096,0.374,0.039,0.47-0.125l4.209-7.291C49.917,22.901,49.839,22.772,49.65,22.779z M35.514,28.827l-1.516-0.875
		c-1.586-0.916-2.132-2.952-1.216-4.538c0.011-0.018,0.022-0.034,0.032-0.051l2.881,1.663c0.009,0.069,0.015,0.138,0.021,0.205
		c0.025,0.299,0.03,0.601-0.001,0.894s-0.095,0.582-0.232,0.841c-0.132,0.258-0.36,0.481-0.677,0.593
		c0.329,0.036,0.7-0.077,0.995-0.305c0.299-0.223,0.531-0.523,0.722-0.834c0.139-0.229,0.25-0.469,0.353-0.713l0.33,0.191
		L35.514,28.827z"/>
</g>
</svg>
