<?xml version="1.0" encoding="iso-8859-1"?>
<!-- Generator: Adobe Illustrator 16.0.0, SVG Export Plug-In . SVG Version: 6.00 Build 0)  -->
<!DOCTYPE svg PUBLIC "-//W3C//DTD SVG 1.1//EN" "http://www.w3.org/Graphics/SVG/1.1/DTD/svg11.dtd">
<svg version="1.1" id="Layer_1" xmlns="http://www.w3.org/2000/svg" xmlns:xlink="http://www.w3.org/1999/xlink" x="0px" y="0px"
	 width="70.737px" height="19.964px" viewBox="0 0 70.737 19.964" style="enable-background:new 0 0 70.737 19.964;"
	 xml:space="preserve">
<path style="fill:#C05758;" d="M70.598,7.238h-8.593c-0.076,0-0.139-0.062-0.139-0.139V6.738c0-0.077-0.062-0.139-0.137-0.139h-0.91
	V6.225h0.129c0.071,0,0.129-0.062,0.129-0.138V5.244c0-0.076-0.061-0.139-0.139-0.138h-0.26V4.537h0.268
	c0.057,0,0.102-0.047,0.102-0.103V4.133c0.006-0.001,0.011-0.002,0.018-0.002c0.227-0.044,0.446-0.099,0.658-0.17
	c0.424-0.145,0.809-0.338,1.149-0.568c0.341-0.228,0.641-0.485,0.9-0.763c0.103-0.111,0.2-0.225,0.292-0.341l0.123-0.165
	c0.049-0.068,0.097-0.139,0.142-0.21c0.06-0.096,0.04-0.24-0.04-0.319l-1.513-1.513c-0.079-0.08-0.227-0.105-0.328-0.058
	c-0.083,0.039-0.164,0.077-0.243,0.115L62.01,0.23c-0.257,0.119-0.495,0.226-0.718,0.303c-0.396,0.141-0.719,0.196-1.004,0.205
	c-0.286,0.006-0.578-0.03-0.941-0.15c-0.099-0.04-0.326-0.141-0.554-0.242l-2.272,1.888c0.1,0.143,0.205,0.276,0.318,0.406
	c0.27,0.304,0.583,0.577,0.942,0.812c0.358,0.236,0.766,0.431,1.206,0.562c0.176,0.053,0.359,0.094,0.545,0.124l-0.001,0.296
	c0,0.057,0.046,0.103,0.102,0.103h0.269v0.568l-0.297,0.001c-0.076-0.001-0.138,0.062-0.138,0.138v0.843
	c0,0.075,0.057,0.138,0.129,0.138c0.071,0,0.13,0,0.13,0V6.6h-7.66c-0.035-0.976-0.414-1.941-1.158-2.687
	c-1.562-1.562-4.097-1.563-5.659-0.001c-0.825,0.826-1.21,1.923-1.163,3.004l-0.604,0.455c-0.633-0.348-1.355-0.602-2.154-0.717
	c-0.63-0.092-0.945-0.133-1.577-0.2c-4.425-0.478-6.676-0.437-11.086,0.2c-2.27,0.328-3.487,0.581-5.571,1.174l-7.534,0.006
	L5.08,5.904C4.093,5.723,3.117,6.25,2.726,7.174L1.413,10.29c-0.458,1.086,0.051,2.337,1.137,2.796
	c0.271,0.113,0.552,0.168,0.828,0.168c0.833,0,1.624-0.49,1.968-1.305l0.647-1.537l8.983,1.653c0.129,0.024,0.258,0.036,0.388,0.036
	l8.722,0.83l-6.281,1.04H6.159c-0.289,0-0.575,0.058-0.842,0.171l-4.022,1.726c-1.084,0.465-1.585,1.719-1.121,2.802
	c0.347,0.81,1.135,1.294,1.963,1.294c0.281,0,0.566-0.056,0.84-0.173l3.621-1.552H17.98c0.117,0,0.234-0.01,0.349-0.029l6.957-1.151
	c0.004,0.017,0.01,0.032,0.015,0.049c0.149-0.044,0.285-0.082,0.424-0.121L28,16.609c0.313-0.052,0.597-0.174,0.844-0.342
	c0.36-0.06,0.745-0.119,1.184-0.184c3.213-0.464,4.969-0.524,7.983-0.23l5.463,2.004c0.199,0.071,0.408,0.107,0.619,0.107
	c0.331,0,0.656-0.091,0.939-0.263l3.323-2.009l1.969-0.047c0.063-0.002,0.129-0.009,0.196-0.022l8.9-1.745
	c0.22-0.043,0.419-0.129,0.601-0.239h0.006c0.066,0,0.124-0.047,0.151-0.106c0.553-0.417,0.856-1.122,0.715-1.847
	c-0.035-0.18-0.104-0.346-0.187-0.502l0.398-1.81c0.016-0.073,0.09-0.135,0.167-0.135h0.458c0.075,0,0.137-0.062,0.137-0.138V8.517
	c0-0.076,0.062-0.139,0.139-0.139h8.593c0.076,0,0.139-0.062,0.139-0.138V7.377C70.737,7.3,70.674,7.238,70.598,7.238z
	 M51.938,13.528l0.394-0.238c0.535-0.324,0.847-0.878,0.892-1.458l2.698-0.529c-0.12,0.585-0.343,1.184-0.753,1.701
	c-0.726,0.916-1.894,1.419-3.474,1.498L51.938,13.528z M56.219,11.244l2.585-0.508c0.044-0.008,0.088-0.008,0.132-0.012l-0.562,2.78
	c-0.003,0.014,0.006,0.021,0.007,0.034l-5.452,1.069C55.147,14.106,55.964,12.615,56.219,11.244z M59.098,9.24
	c0.076,0,0.126,0.062,0.11,0.136l-0.163,0.806c-0.113,0.001-0.228,0.01-0.344,0.032l-2.403,0.472
	c0.051-0.563,0.022-1.075-0.02-1.445H59.098z M53.281,9.24h0.153c-0.013,0.105-0.022,0.212-0.021,0.319
	c0.004,0.146,0.024,0.298,0.084,0.436c0.057,0.139,0.163,0.252,0.285,0.307c-0.088-0.104-0.122-0.228-0.117-0.343
	c0.005-0.117,0.041-0.231,0.089-0.34c0.048-0.109,0.109-0.213,0.179-0.312c0.016-0.022,0.031-0.045,0.049-0.067h1.337
	c0,0.009,0.001,0.016,0.001,0.024c0,0.737-0.6,1.336-1.336,1.336L53.281,10.6V9.24z M53.984,10.877c0.891,0,1.612-0.723,1.612-1.612
	c0-0.009-0.001-0.016-0.001-0.024H56c0.043,0.374,0.069,0.914,0.01,1.502l-2.826,0.554c-0.031-0.143-0.082-0.282-0.146-0.419h0.244
	H53.984z M46.52,10.427c1.15,0.485,2.477,0.401,3.569-0.235l-0.027,0.106l-1.976,1.194l-1.945-0.382
	c-0.013-0.12-0.027-0.242-0.049-0.361L46.52,10.427z M46.02,12.532c0.085-0.289,0.129-0.581,0.141-0.874l1.247,0.244l-1.478,0.893
	C45.962,12.709,45.996,12.622,46.02,12.532z M44.755,17.246c-0.329,0.198-0.744,0.239-1.1,0.109L36.414,14.7
	c-1.284-0.471-1.945-1.897-1.474-3.182c0.356-0.973,1.292-1.626,2.327-1.626c0.291,0,0.578,0.051,0.854,0.152
	c0.227,0.082,0.453,0.207,0.652,0.357l5.363,4.101l6.54-3.953c0.208-0.126,0.446-0.192,0.688-0.192c0.472,0,0.9,0.242,1.144,0.645
	c0.381,0.629,0.178,1.45-0.452,1.832L44.755,17.246z M50.417,15.101c-0.036,0.008-0.074,0.011-0.109,0.013l-0.349,0.008l0.442-0.26
	c0.066-0.038,0.181-0.069,0.258-0.069l0.963-0.001l0.002-0.008c0.278-0.012,0.537-0.038,0.784-0.073L50.417,15.101z"/>
</svg>
