<?xml version="1.0" encoding="iso-8859-1"?>
<!-- Generator: Adobe Illustrator 16.0.0, SVG Export Plug-In . SVG Version: 6.00 Build 0)  -->
<!DOCTYPE svg PUBLIC "-//W3C//DTD SVG 1.1//EN" "http://www.w3.org/Graphics/SVG/1.1/DTD/svg11.dtd">
<svg version="1.1" id="Layer_1" xmlns="http://www.w3.org/2000/svg" xmlns:xlink="http://www.w3.org/1999/xlink" x="0px" y="0px"
	 width="49.031px" height="42.028px" viewBox="0 0 49.031 42.028" style="enable-background:new 0 0 49.031 42.028;"
	 xml:space="preserve">
<path style="fill:#C05758;" d="M48.893,9.63H40.3c-0.076,0-0.138-0.062-0.138-0.138V9.129c0-0.075-0.062-0.138-0.139-0.138h-0.909
	V8.617h0.129c0.071,0,0.13-0.062,0.13-0.139V7.637c0-0.077-0.062-0.14-0.14-0.14h-0.26V6.929h0.268c0.057,0,0.101-0.046,0.101-0.103
	V6.525c0.007-0.001,0.012-0.002,0.019-0.003c0.226-0.044,0.446-0.099,0.658-0.17c0.424-0.144,0.809-0.338,1.149-0.567
	c0.342-0.229,0.641-0.486,0.9-0.764c0.103-0.11,0.2-0.225,0.292-0.34l0.122-0.166c0.051-0.068,0.098-0.139,0.143-0.21
	c0.061-0.096,0.04-0.239-0.04-0.319l-1.513-1.513c-0.079-0.079-0.227-0.105-0.328-0.058c-0.083,0.039-0.164,0.077-0.243,0.116
	l-0.196,0.091c-0.257,0.119-0.494,0.225-0.719,0.302c-0.395,0.142-0.717,0.197-1.003,0.204c-0.286,0.008-0.578-0.028-0.94-0.148
	c-0.101-0.04-0.327-0.141-0.554-0.242l-2.273,1.887c0.1,0.142,0.205,0.277,0.319,0.407c0.269,0.303,0.582,0.576,0.941,0.812
	c0.359,0.235,0.766,0.431,1.206,0.562c0.177,0.053,0.359,0.094,0.544,0.125v0.294c0,0.057,0.046,0.103,0.102,0.103h0.269v0.568
	l-0.298,0.001c-0.075-0.001-0.138,0.062-0.138,0.139v0.842c0,0.076,0.058,0.139,0.13,0.139c0.07,0,0.13,0,0.13,0v0.374h-8.495
	c-0.076,0-0.19-0.032-0.255-0.073l-1.4-0.873c-0.065-0.041-0.117-0.011-0.117,0.065v3.384c0,0.077,0.062,0.139,0.138,0.139h0.599
	c0.076,0,0.123,0.06,0.104,0.133l-0.221,0.854l-2.527,1.159l-5.229-1.024c-0.046-1.487-0.634-2.903-1.656-3.883V7.473
	c1.205-0.69,2.019-1.984,2.019-3.472c0-2.21-1.79-4.001-4.001-4.001c-2.209,0-4.002,1.791-4.002,4.001
	c0,1.358,0.681,2.558,1.717,3.281v0.525c-1.727,0.578-3.218,2.288-3.555,4.626c-0.092,0.629-0.131,0.944-0.199,1.576
	c-0.479,4.424-0.438,6.677,0.199,11.086c0.266,1.839,0.479,2.981,0.866,4.456l-0.558,6.464l-6.709-0.805
	c-0.686-0.081-1.363,0.171-1.828,0.677l-2.35,2.565c-0.797,0.869-0.737,2.219,0.132,3.016c0.409,0.375,0.926,0.56,1.441,0.56
	c0.577,0,1.152-0.232,1.574-0.692l1.61-1.758l7.812,0.938c0.573,0.068,1.152-0.098,1.601-0.463c0.449-0.365,0.73-0.896,0.78-1.473
	l2.339-9.368l6.252-0.217v9.937c0,1.179,0.955,2.135,2.134,2.135h3.579c1.18,0,2.135-0.956,2.135-2.135
	c0-1.178-0.955-2.135-2.135-2.135h-1.445v-9.688c0-1.076-0.802-1.984-1.871-2.117l-5.851-0.727
	c-0.026-0.172-0.052-0.344-0.079-0.532c-0.284-1.961-0.412-3.383-0.405-4.876l1.882,0.394c0.117,0.024,0.239,0.037,0.359,0.037
	c0.254,0,0.501-0.054,0.734-0.161l0.601-0.275h1.377c0.061,0,0.147-0.034,0.191-0.076l0.719-0.675l2.591-0.062
	c0.064-0.002,0.131-0.01,0.197-0.023l8.899-1.745c0.219-0.042,0.421-0.127,0.605-0.238h0.003c0.064,0,0.12-0.047,0.148-0.104
	c0.165-0.125,0.315-0.271,0.434-0.448c0.278-0.414,0.379-0.911,0.282-1.401c-0.035-0.181-0.104-0.346-0.185-0.502l0.396-1.81
	c0.016-0.075,0.092-0.135,0.168-0.135h0.457c0.076,0,0.139-0.062,0.139-0.139v-0.586c0-0.076,0.062-0.139,0.138-0.139h8.593
	c0.076,0,0.139-0.061,0.139-0.138V9.769C49.031,9.691,48.969,9.63,48.893,9.63z M31.575,11.633h0.153
	c-0.013,0.105-0.022,0.211-0.021,0.317c0.003,0.147,0.024,0.3,0.084,0.438c0.057,0.138,0.163,0.251,0.285,0.305
	c-0.088-0.102-0.122-0.227-0.117-0.342c0.004-0.117,0.041-0.231,0.089-0.339c0.048-0.109,0.109-0.213,0.179-0.312
	c0.016-0.022,0.032-0.044,0.049-0.066h1.337c0,0.008,0.001,0.016,0.001,0.024c0,0.736-0.6,1.335-1.335,1.335h-0.704V11.633z
	 M31.575,13.269h0.704c0.891,0,1.611-0.722,1.611-1.611c0-0.009-0.001-0.017-0.002-0.024h0.405c0.043,0.374,0.07,0.914,0.009,1.501
	l-2.82,0.554c-0.027-0.129-0.067-0.258-0.125-0.382c-0.006-0.013-0.014-0.024-0.02-0.037H31.575z M34.217,13.694
	c-0.121,0.585-0.344,1.185-0.754,1.701c-0.725,0.917-1.894,1.419-3.474,1.499l0.255-1.024l0.194-0.088
	c0.638-0.294,1.023-0.903,1.075-1.557L34.217,13.694z M20.568,13.795c0.023-0.166,0.032-0.333,0.043-0.499l4.402,0.863l-2.574,1.181
	l-1.93-1.12C20.525,14.091,20.545,13.957,20.568,13.795z M22.916,18.642c-0.239,0.11-0.504,0.141-0.763,0.087l-7.147-1.491
	c-1.34-0.28-2.203-1.6-1.924-2.939c0.238-1.146,1.26-1.976,2.429-1.976c0.17,0,0.341,0.018,0.51,0.053
	c0.253,0.053,0.509,0.15,0.74,0.283l5.649,3.281l6.694-3.068c0.653-0.299,1.472,0.011,1.769,0.656
	c0.306,0.67,0.012,1.463-0.656,1.77L22.916,18.642z M28.713,17.492c-0.037,0.009-0.074,0.012-0.11,0.013l-0.349,0.009l0.441-0.26
	c0.067-0.039,0.182-0.07,0.259-0.07h0.963l0.003-0.008c0.277-0.013,0.536-0.038,0.783-0.073L28.713,17.492z M36.677,15.932
	l-5.466,1.072c2.228-0.5,3.047-1.994,3.303-3.367l2.585-0.508c0.044-0.008,0.087-0.008,0.132-0.012l-0.562,2.779
	C36.666,15.91,36.675,15.919,36.677,15.932z M37.341,12.574c-0.114,0.001-0.229,0.009-0.346,0.032l-2.403,0.471
	c0.051-0.563,0.023-1.074-0.019-1.444h2.819c0.076,0,0.126,0.061,0.11,0.136L37.341,12.574z"/>
</svg>
