<?xml version="1.0" encoding="iso-8859-1"?>
<!-- Generator: Adobe Illustrator 16.0.0, SVG Export Plug-In . SVG Version: 6.00 Build 0)  -->
<!DOCTYPE svg PUBLIC "-//W3C//DTD SVG 1.1//EN" "http://www.w3.org/Graphics/SVG/1.1/DTD/svg11.dtd">
<svg version="1.1" id="Layer_1" xmlns="http://www.w3.org/2000/svg" xmlns:xlink="http://www.w3.org/1999/xlink" x="0px" y="0px"
	 width="52.764px" height="51.286px" viewBox="0 0 52.764 51.286" style="enable-background:new 0 0 52.764 51.286;"
	 xml:space="preserve">
<g>
	<path style="fill:#C05758;" d="M25.167,40.983c-0.457-1.706-2.212-2.719-3.919-2.262L9,42.003c-0.38,0.102-0.604,0.491-0.503,0.87
		l1.288,4.808c0.102,0.379,0.492,0.604,0.871,0.503l12.248-3.282C24.612,44.446,25.624,42.691,25.167,40.983z"/>
	<path style="fill:#C05758;" d="M26.375,13.596l0.124-0.002c0.935,0,1.783,0.32,2.468,0.842l1.563-2.528
		c0.724-1.168,0.362-2.702-0.808-3.426c-1.169-0.722-2.702-0.36-3.425,0.809l-1.81,2.926l0.16,1.821
		C25.167,13.772,25.753,13.615,26.375,13.596z"/>
	<path style="fill:#C05758;" d="M52.329,19.401c-0.761-1.089-2.257-1.35-3.343-0.59l-8.35,5.848l10.313-8.9
		c1.015-0.852,1.147-2.365,0.296-3.381c-0.846-1.017-2.365-1.148-3.381-0.297l-10.77,9.037L49.125,8.601
		c0.934-0.938,0.934-2.456-0.003-3.392c-0.001-0.001-0.001-0.001-0.003-0.003c-0.938-0.936-2.458-0.934-3.394,0.005L33.475,17.498
		l9.393-13.721c0.761-1.086,0.498-2.584-0.589-3.343c-1.085-0.761-2.583-0.496-3.343,0.589l-9.033,12.901l-0.701,0.698
		c0.816,0.721,1.349,1.756,1.384,2.937l0.262,8.643c0.014,0.404-0.045,0.809-0.175,1.198l-2.308,6.849l1.311,4.071l1.021,3.809
		l0.713-0.713c0.277-0.277,0.278-0.728,0-1.006l-0.062-0.062l0.741-0.767l2.835-3.135l9.16-8.341l7.658-5.362
		C52.825,21.983,53.09,20.486,52.329,19.401z"/>
	<path style="fill:#C05758;" d="M26.679,34.238l2.262-6.716l0.213-0.627c0.066-0.201,0.101-0.42,0.094-0.646l-0.262-8.642
		c-0.042-1.373-1.189-2.453-2.563-2.412c-1.374,0.042-2.454,1.189-2.412,2.562l0.128,4.258l-0.593-2.197L22.174,4.129
		c-0.115-1.32-1.279-2.298-2.6-2.182c-1.321,0.114-2.298,1.28-2.182,2.601l1.274,16.578L14.2,4.362
		c-0.341-1.28-1.656-2.043-2.937-1.701c-0.001,0.001-0.002,0.001-0.003,0.001C9.981,3.004,9.221,4.319,9.562,5.598l4.159,16.854
		L8.913,9.241C8.458,7.996,7.078,7.35,5.836,7.807C4.591,8.26,3.949,9.638,4.402,10.883l4.482,12.865l-4.308-9.239
		c-0.561-1.201-1.986-1.724-3.189-1.161c-1.201,0.56-1.721,1.988-1.161,3.189l3.951,8.472l3.763,11.804l0.888,4.133l12.145-3.255
		c0.362-0.097,0.734-0.146,1.106-0.146c1.926,0,3.62,1.3,4.119,3.163c0.295,1.102,0.144,2.251-0.427,3.238
		c-0.569,0.986-1.49,1.692-2.591,1.987l-12.248,3.282c-0.012,0.003-0.025,0.004-0.037,0.007l0.552,2.063l18.702-5.012l-2.021-7.539
		L26.679,34.238z"/>
</g>
</svg>
