<?xml version="1.0" encoding="iso-8859-1"?>
<!-- Generator: Adobe Illustrator 16.0.0, SVG Export Plug-In . SVG Version: 6.00 Build 0)  -->
<!DOCTYPE svg PUBLIC "-//W3C//DTD SVG 1.1//EN" "http://www.w3.org/Graphics/SVG/1.1/DTD/svg11.dtd">
<svg version="1.1" id="Layer_1" xmlns="http://www.w3.org/2000/svg" xmlns:xlink="http://www.w3.org/1999/xlink" x="0px" y="0px"
	 width="44.941px" height="70.01px" viewBox="0 0 44.941 70.01" style="enable-background:new 0 0 44.941 70.01;"
	 xml:space="preserve">
<g>
	<path style="fill:#C05758;" d="M7.969,15.737c0.263,0.073,0.575,0.159,0.805,0.22l0.648-7.013C9.227,9.018,9.044,9.088,8.891,9.147
		c-0.26,0.101-0.502,0.414-0.543,0.691l-0.79,5.26C7.516,15.375,7.7,15.661,7.969,15.737z"/>
	<path style="fill:#C05758;" d="M44.841,2.106c0.135-0.134,0.135-0.352,0-0.486l-1.52-1.519c-0.134-0.134-0.353-0.134-0.486,0
		L27.721,15.215c-0.135,0.134-0.352,0.134-0.486,0l-0.637-0.638c-0.135-0.134-0.353-0.134-0.488,0l-1.599,1.6l-0.659-0.658
		l0.229-0.228c0.125-0.125,0.119-0.336-0.016-0.471l-1.482-1.482c-0.134-0.134-0.352-0.134-0.487,0l-0.459,0.46l-1.001-1.001
		l0.472-0.472c0.099-0.1,0.099-0.259,0-0.358l-0.531-0.531c0.009-0.011,0.017-0.022,0.025-0.034c0.322-0.474,0.614-0.96,0.86-1.458
		c0.491-0.997,0.828-2.018,1.023-3.019c0.198-1.002,0.272-1.982,0.241-2.928c-0.015-0.375-0.042-0.746-0.086-1.11L22.566,2.38
		c-0.035-0.208-0.074-0.417-0.121-0.621c-0.062-0.272-0.354-0.491-0.633-0.491h-5.32c-0.279,0-0.584,0.213-0.68,0.477
		c-0.077,0.215-0.152,0.425-0.226,0.631l-0.184,0.506c-0.241,0.661-0.475,1.265-0.732,1.794c-0.448,0.943-0.916,1.609-1.405,2.125
		c-0.491,0.515-1.068,0.965-1.918,1.393c-0.064,0.027-0.155,0.064-0.26,0.106l-0.729,7.891c0.063,0.005,0.125,0.019,0.188,0.023
		c1.005,0.059,2.039-0.011,3.086-0.227c1.046-0.217,2.104-0.59,3.109-1.134c0.404-0.217,0.797-0.465,1.177-0.737l0.519,0.52
		c0.1,0.098,0.26,0.099,0.359,0l0.472-0.472l1.001,1.001l-0.521,0.522c-0.135,0.134-0.135,0.353-0.001,0.486l1.483,1.482
		c0.134,0.134,0.344,0.142,0.47,0.016c0.126-0.125,0.229-0.227,0.229-0.227l0.657,0.658l-14.94,14.94
		c-0.134,0.135-0.392,0.279-0.577,0.322l-3.999,0.928c-0.186,0.042-0.227,0.187-0.092,0.321l5.952,5.951
		c0.135,0.135,0.352,0.135,0.486,0l1.053-1.053c0.135-0.133,0.321-0.11,0.418,0.053l6.226,10.539
		c0.098,0.162,0.066,0.404-0.068,0.537l-1.591,1.592c-0.047,0.048-0.072,0.107-0.086,0.17l-0.081,0.08l-2.947,0.093
		c-0.151,0.005-0.363,0.096-0.472,0.204L0.022,64.624c-0.19,0.189,0.856,1.545,2.338,3.025c1.482,1.482,2.837,2.529,3.026,2.339
		l11.847-11.845c0.106-0.109,0.198-0.318,0.204-0.471l0.091-2.914l0.188-0.188c0.016-0.012,0.033-0.018,0.047-0.031l1.822-1.822
		c0.134-0.135,0.282-0.392,0.33-0.576l0.804-3.107c0.049-0.184,0.196-0.441,0.33-0.576l1.695-1.695l-0.012-0.018l-0.369-0.615
		l-4.791-7.967l0.168-0.166l1.035-1.036l1.236-1.237c1.566-1.565,1.566-4.104,0-5.67c-0.015-0.015-0.03-0.027-0.044-0.041
		l0.711-0.71l0.49-0.492l4.96-4.959c0.134-0.133,0.328-0.114,0.434,0.044l5.794,8.729c0.105,0.159,0.299,0.178,0.433,0.044
		l2.715-2.714c0.134-0.135,0.16-0.373,0.059-0.533l-5.668-8.861c-0.103-0.159-0.077-0.398,0.059-0.532l0.804-0.804
		c0.134-0.134,0.134-0.352,0-0.486l-1.031-1.03c-0.134-0.134-0.135-0.352,0-0.486L44.841,2.106z M19.526,35.237l-1.237,1.238
		l-2.392-2.392l0.269-0.27c0.162,0.209,0.332,0.411,0.525,0.597c0.265,0.252,0.566,0.482,0.913,0.62
		c0.344,0.143,0.731,0.156,1.04,0.036c-0.335-0.026-0.613-0.183-0.809-0.397c-0.199-0.213-0.335-0.477-0.441-0.752
		c-0.105-0.275-0.179-0.567-0.231-0.863c-0.013-0.067-0.023-0.135-0.033-0.204l2.352-2.352c0.014,0.015,0.03,0.026,0.045,0.04
		C20.821,31.834,20.821,33.942,19.526,35.237z"/>
</g>
</svg>
