<?xml version="1.0" encoding="iso-8859-1"?>
<!-- Generator: Adobe Illustrator 16.0.0, SVG Export Plug-In . SVG Version: 6.00 Build 0)  -->
<!DOCTYPE svg PUBLIC "-//W3C//DTD SVG 1.1//EN" "http://www.w3.org/Graphics/SVG/1.1/DTD/svg11.dtd">
<svg version="1.1" id="Layer_1" xmlns="http://www.w3.org/2000/svg" xmlns:xlink="http://www.w3.org/1999/xlink" x="0px" y="0px"
	 width="40.081px" height="41.953px" viewBox="0 0 40.081 41.953" style="enable-background:new 0 0 40.081 41.953;"
	 xml:space="preserve">
<g>
	<path style="fill:#C05758;" d="M29.939,24.875c-3.624,0-6.581-3.5-8.788-10.405c-0.062-0.191-0.323-0.387-0.518-0.387h-1.186
		c-0.195,0-0.457,0.195-0.518,0.387c-2.207,6.905-5.164,10.405-8.789,10.405c-3.473,0-6.676-3.277-8.752-6.026
		c-0.055-0.073-0.104-0.161-0.157-0.239l0.021,0.222c0.182,1.946,0.963,4.975,1.741,6.768c0.748,1.725,1.725,3.982,2.762,6.395
		c1.228,2.857,3.456,5.598,5.205,7.477c1.331,1.432,4.104,2.482,6.058,2.482h3.022h0.001h3.022c1.954,0,4.727-1.051,6.058-2.482
		c1.748-1.879,3.977-4.619,5.205-7.477c1.036-2.412,2.014-4.67,2.762-6.395c0.777-1.793,1.559-4.822,1.741-6.768l0.021-0.222
		c-0.053,0.077-0.103,0.166-0.157,0.238C36.617,21.597,33.414,24.875,29.939,24.875z M9.052,32.888
		c-0.767-0.623-1.908-1.611-2.138-2.149l-3.697-6.866c-0.238-0.441-0.14-0.516,0.23-0.178c0.967,0.885,2.813,2.479,4.297,3.192
		c0.452,0.218,0.926,0.713,1.018,1.206l0.835,4.465C9.689,33.051,9.44,33.205,9.052,32.888z M20.041,41.197
		c-4.159,0-7.532-1.822-7.532-7.125c0-5.305,3.373-12.079,7.532-12.079c4.16,0,7.531,6.774,7.531,12.079
		C27.572,39.375,24.201,41.197,20.041,41.197z M36.864,23.873l-3.696,6.866c-0.23,0.538-1.371,1.526-2.138,2.149
		c-0.39,0.316-0.638,0.163-0.546-0.33l0.835-4.465c0.092-0.493,0.565-0.988,1.018-1.206c1.484-0.714,3.329-2.307,4.297-3.192
		C37.003,23.357,37.102,23.431,36.864,23.873z"/>
	<path style="fill:#C05758;" d="M2.251,2.694c2.302-0.916,5.252-1.38,8.771-1.38c1.775,0,3.661,0.118,5.605,0.35
		c0.911,0.109,2.123,0.168,3.413,0.168s2.502-0.06,3.414-0.168c1.944-0.232,3.83-0.35,5.604-0.35c3.52,0,6.471,0.464,8.771,1.38
		c0.938,0.373,1.697,1.135,2.251,2.059c-0.155-1.664-1.466-3.048-3.185-3.228L23.716,0.15C22.705,0.044,21.367-0.005,20.041,0H20.04
		c-1.325-0.006-2.664,0.043-3.676,0.149L3.185,1.526C1.466,1.706,0.155,3.09,0,4.752C0.554,3.829,1.314,3.067,2.251,2.694z"/>
	<path style="fill:#C05758;" d="M37.238,4.181c-2.113-0.84-4.864-1.266-8.18-1.266c-1.709,0-3.531,0.114-5.415,0.338
		c-0.973,0.116-2.252,0.18-3.603,0.18c-1.35,0-2.63-0.064-3.602-0.18c-1.883-0.225-3.706-0.338-5.417-0.338
		c-3.314,0-6.066,0.426-8.179,1.266c-1.399,0.557-2.358,2.812-2.28,4.456l0.156,3.276c0.083,1.748,0.885,4.564,1.947,5.972
		c1.52,2.013,4.51,5.391,7.475,5.391c3.549,0,5.91-5.053,7.265-9.293c0.273-0.854,1.151-1.5,2.042-1.5h1.186
		c0.891,0,1.768,0.645,2.042,1.5c1.355,4.24,3.715,9.292,7.264,9.292c2.965,0,5.956-3.377,7.476-5.391
		c1.062-1.408,1.864-4.225,1.946-5.972l0.156-3.276C39.595,6.993,38.636,4.738,37.238,4.181z"/>
	<path style="fill:#C05758;" d="M23.131,24.455h-0.048c-0.926-0.962-1.965-1.554-3.043-1.554c-1.078,0-2.118,0.592-3.043,1.553
		h-0.048v0.048c-2.059,2.177-3.532,6.186-3.532,9.57c0,2.064,0.558,3.619,1.666,4.657v0.007h0.008
		c1.106,1.032,2.758,1.553,4.949,1.553c2.191,0,3.843-0.52,4.949-1.553h0.008v-0.007c1.107-1.038,1.666-2.593,1.666-4.657
		c0-3.385-1.474-7.394-3.532-9.57V24.455z M15.452,37.345c0,0.251-0.136,0.302-0.276,0.094c-0.192-0.282-0.35-0.598-0.476-0.945
		c-0.085-0.235,0.063-0.433,0.309-0.433c0.245,0,0.443,0.204,0.443,0.454V37.345z M15.452,34.699c0,0.25-0.203,0.453-0.454,0.453
		h-0.151c-0.251,0-0.48-0.201-0.498-0.451c-0.014-0.203-0.023-0.412-0.023-0.629c0-0.114,0.003-0.229,0.006-0.344
		c0.007-0.189,0.22-0.342,0.471-0.342h0.195c0.251,0,0.454,0.203,0.454,0.455V34.699z M15.452,32.024
		c0,0.251-0.203,0.454-0.454,0.454h-0.11c-0.251,0-0.429-0.202-0.389-0.449c0.047-0.293,0.104-0.586,0.169-0.875
		c0.055-0.246,0.258-0.442,0.445-0.442c0.188,0,0.339,0.204,0.339,0.454V32.024z M15.452,29.349c0,0.25-0.092,0.454-0.208,0.454
		c-0.114,0-0.146-0.194-0.062-0.431c0.034-0.096,0.068-0.189,0.104-0.285c0.088-0.234,0.166-0.219,0.166,0.031V29.349z
		 M17.764,39.126c-0.232-0.059-0.453-0.129-0.661-0.209c-0.234-0.09-0.212-0.182,0.039-0.182h0.611c0.251,0,0.455,0.109,0.455,0.244
		S18.007,39.189,17.764,39.126z M18.208,37.373c0,0.252-0.204,0.455-0.455,0.455h-0.939c-0.251,0-0.455-0.203-0.455-0.455v-0.857
		c0-0.25,0.204-0.454,0.455-0.454h0.939c0.251,0,0.455,0.204,0.455,0.454V37.373z M18.208,34.699c0,0.25-0.204,0.453-0.455,0.453
		h-0.939c-0.251,0-0.455-0.203-0.455-0.453v-0.857c0-0.252,0.204-0.455,0.455-0.455h0.939c0.251,0,0.455,0.203,0.455,0.455V34.699z
		 M18.208,32.024c0,0.251-0.204,0.454-0.455,0.454h-0.939c-0.251,0-0.455-0.203-0.455-0.454v-0.858c0-0.25,0.204-0.454,0.455-0.454
		h0.939c0.251,0,0.455,0.204,0.455,0.454V32.024z M18.208,29.349c0,0.25-0.204,0.454-0.455,0.454h-0.939
		c-0.251,0-0.455-0.204-0.455-0.454v-0.857c0-0.252,0.204-0.455,0.455-0.455h0.939c0.251,0,0.455,0.203,0.455,0.455V29.349z
		 M18.208,26.674c0,0.251-0.204,0.454-0.455,0.454h-0.939c-0.251,0-0.455-0.066-0.455-0.147v-0.147
		c0.242-0.406,0.497-0.781,0.762-1.121c0.155-0.197,0.467-0.35,0.688-0.35c0.221,0,0.398,0.203,0.398,0.453V26.674z M20.51,39.369
		c-0.152,0.008-0.309,0.012-0.47,0.012c-0.162,0-0.318-0.004-0.471-0.012c-0.25-0.01-0.453-0.164-0.453-0.33
		c0-0.168,0.204-0.303,0.455-0.303h0.939c0.25,0,0.454,0.135,0.454,0.303C20.963,39.205,20.761,39.359,20.51,39.369z M20.963,37.373
		c0,0.252-0.203,0.455-0.454,0.455h-0.939c-0.251,0-0.455-0.203-0.455-0.455v-0.857c0-0.25,0.204-0.454,0.455-0.454l0.939,0.001
		c0.25,0,0.454,0.203,0.454,0.453V37.373z M20.963,34.699c0,0.25-0.203,0.453-0.454,0.453h-0.939c-0.251,0-0.455-0.203-0.455-0.453
		v-0.857c0-0.252,0.204-0.455,0.455-0.455h0.939c0.25,0,0.454,0.203,0.454,0.455V34.699z M20.963,32.024
		c0,0.251-0.203,0.454-0.454,0.454h-0.939c-0.251,0-0.455-0.203-0.455-0.454v-0.858c0-0.25,0.204-0.454,0.455-0.454l0.939,0.001
		c0.25,0,0.454,0.203,0.454,0.453V32.024z M20.963,29.349c0,0.251-0.203,0.455-0.454,0.455l-0.939-0.001
		c-0.251,0-0.455-0.204-0.455-0.454v-0.857c0-0.252,0.204-0.455,0.455-0.455h0.939c0.25,0,0.454,0.203,0.454,0.455V29.349z
		 M20.963,26.674c0,0.251-0.203,0.454-0.454,0.454h-0.939c-0.251,0-0.455-0.203-0.455-0.454v-0.858c0-0.25,0.204-0.453,0.455-0.453
		h0.939c0.25,0,0.454,0.203,0.454,0.453V26.674z M20.51,24.455l-0.939-0.001c-0.251,0-0.455-0.098-0.455-0.219
		c0-0.12,0.186-0.304,0.43-0.364c0.166-0.039,0.331-0.062,0.495-0.062c0.163,0,0.328,0.021,0.494,0.062
		c0.244,0.06,0.429,0.244,0.429,0.364C20.963,24.356,20.76,24.455,20.51,24.455z M22.977,38.917
		c-0.208,0.081-0.429,0.15-0.661,0.209c-0.244,0.062-0.443-0.012-0.443-0.146s0.203-0.244,0.454-0.244h0.612
		C23.189,38.736,23.211,38.828,22.977,38.917z M23.72,37.373c0,0.252-0.203,0.455-0.455,0.455h-0.938
		c-0.251,0-0.454-0.203-0.454-0.455v-0.857c0-0.25,0.203-0.453,0.454-0.453h0.938c0.252,0,0.455,0.203,0.455,0.453V37.373z
		 M23.72,34.699c0,0.25-0.203,0.453-0.455,0.453h-0.938c-0.251,0-0.454-0.203-0.454-0.453v-0.857c0-0.252,0.203-0.455,0.454-0.455
		h0.938c0.252,0,0.455,0.203,0.455,0.455V34.699z M23.72,32.024c0,0.251-0.203,0.454-0.455,0.454h-0.938
		c-0.251,0-0.454-0.203-0.454-0.454v-0.858c0-0.25,0.203-0.453,0.454-0.453h0.938c0.252,0,0.455,0.203,0.455,0.453V32.024z
		 M23.72,29.349c0,0.251-0.203,0.455-0.455,0.455h-0.938c-0.251,0-0.454-0.204-0.454-0.455v-0.857c0-0.252,0.203-0.455,0.454-0.455
		h0.938c0.252,0,0.455,0.203,0.455,0.455V29.349z M24.628,29.118c0-0.251,0.078-0.267,0.166-0.031
		c0.035,0.095,0.07,0.19,0.104,0.286c0.083,0.236,0.052,0.432-0.063,0.432c-0.113,0-0.207-0.204-0.207-0.455V29.118z M24.628,31.166
		c0-0.25,0.152-0.453,0.34-0.453c0.187,0,0.391,0.195,0.445,0.441c0.064,0.289,0.121,0.582,0.169,0.875
		c0.04,0.248-0.138,0.449-0.39,0.449h-0.109c-0.252,0-0.455-0.203-0.455-0.454V31.166z M24.628,33.841
		c0-0.252,0.203-0.455,0.455-0.455h0.195c0.252,0,0.464,0.153,0.47,0.342c0.005,0.115,0.007,0.23,0.007,0.344
		c0,0.217-0.008,0.426-0.022,0.629c-0.019,0.25-0.247,0.451-0.498,0.451h-0.151c-0.252,0-0.455-0.203-0.455-0.453V33.841z
		 M24.628,36.515c0-0.25,0.198-0.453,0.444-0.453c0.245,0,0.394,0.196,0.31,0.432c-0.127,0.348-0.285,0.663-0.478,0.947
		c-0.141,0.207-0.276,0.156-0.276-0.096V36.515z M23.72,26.833c0,0,0,0.065,0,0.147s-0.203,0.148-0.455,0.148h-0.938
		c-0.251,0-0.454-0.203-0.454-0.454v-0.858c0-0.25,0.179-0.453,0.398-0.453c0.221,0,0.533,0.152,0.688,0.35
		C23.224,26.052,23.48,26.427,23.72,26.833z"/>
</g>
</svg>
