<?xml version="1.0" encoding="iso-8859-1"?>
<!-- Generator: Adobe Illustrator 16.0.0, SVG Export Plug-In . SVG Version: 6.00 Build 0)  -->
<!DOCTYPE svg PUBLIC "-//W3C//DTD SVG 1.1//EN" "http://www.w3.org/Graphics/SVG/1.1/DTD/svg11.dtd">
<svg version="1.1" id="Layer_1" xmlns="http://www.w3.org/2000/svg" xmlns:xlink="http://www.w3.org/1999/xlink" x="0px" y="0px"
	 width="39.235px" height="51.736px" viewBox="0 0 39.235 51.736" style="enable-background:new 0 0 39.235 51.736;"
	 xml:space="preserve">
<g>
	<polygon style="fill:#C05758;" points="7.201,28.739 7.202,28.739 7.201,28.739 	"/>
	<path style="fill:#C05758;" d="M39.097,9.63h-8.593c-0.077,0-0.139-0.062-0.139-0.138V9.13c0-0.076-0.062-0.139-0.138-0.139h-0.91
		V8.617h0.13c0.071,0,0.129-0.062,0.129-0.138V7.637c0-0.077-0.062-0.139-0.138-0.139h-0.262V6.929h0.268
		c0.057,0,0.102-0.046,0.102-0.103V6.525c0.006-0.001,0.012-0.002,0.018-0.002c0.227-0.044,0.447-0.1,0.659-0.171
		c0.423-0.144,0.81-0.338,1.149-0.566c0.341-0.229,0.641-0.487,0.9-0.765c0.103-0.11,0.2-0.224,0.291-0.34l0.123-0.165
		c0.05-0.069,0.098-0.14,0.143-0.211c0.06-0.095,0.039-0.239-0.04-0.319l-1.513-1.513c-0.079-0.078-0.227-0.104-0.328-0.058
		c-0.084,0.039-0.164,0.078-0.244,0.116l-0.195,0.091c-0.257,0.12-0.495,0.226-0.719,0.302c-0.396,0.142-0.718,0.197-1.004,0.205
		c-0.285,0.007-0.578-0.029-0.941-0.148c-0.099-0.041-0.326-0.142-0.553-0.243L25.02,4.626c0.099,0.141,0.204,0.276,0.319,0.406
		c0.268,0.303,0.582,0.576,0.941,0.813c0.358,0.234,0.766,0.43,1.206,0.562c0.177,0.053,0.358,0.094,0.544,0.125v0.294
		c0,0.057,0.045,0.103,0.102,0.103h0.268v0.569h-0.297c-0.076,0-0.138,0.062-0.138,0.139v0.843c0,0.076,0.058,0.138,0.13,0.138
		c0.07,0,0.129,0,0.129,0v0.374h-8.494c-0.076,0-0.19-0.032-0.255-0.072l-1.4-0.874c-0.066-0.04-0.118-0.011-0.118,0.065v3.385
		c0,0.076,0.062,0.138,0.138,0.138h0.257l-1.45,0.877L9.82,9.654C9.625,9.373,9.411,9.106,9.165,8.87V7.474
		c1.205-0.691,2.019-1.985,2.019-3.473C11.184,1.792,9.392,0,7.183,0c-2.21,0-4.001,1.792-4.001,4.001
		c0,1.359,0.68,2.559,1.716,3.281v0.525C3.17,8.386,1.68,10.096,1.342,12.434c-0.091,0.63-0.13,0.945-0.199,1.577
		c-0.479,4.424-0.438,6.677,0.199,11.085c0.204,1.413,0.38,2.416,0.625,3.472l1.171,9.778L0.082,49.015
		c-0.184,0.645-0.055,1.338,0.348,1.873c0.403,0.534,1.035,0.849,1.704,0.849h3.725c1.178,0,2.134-0.955,2.134-2.134
		s-0.956-2.134-2.134-2.134H4.965l2.345-8.189c0.046-0.16,0.073-0.327,0.081-0.493L7.201,28.739c-0.28,0.081-0.776,0.226,0,0
		c0.249-0.072,0.158-0.046,0,0l7.104,9.659v11.204c0,1.179,0.955,2.134,2.134,2.134h2.834c1.179,0,2.134-0.955,2.134-2.134
		s-0.955-2.134-2.134-2.134h-0.701v-9.688c0-0.404-0.114-0.799-0.329-1.14l-7.245-11.483c-0.076-0.427-0.148-0.886-0.226-1.425
		c-0.284-1.965-0.414-3.386-0.407-4.882h0.341l1.009,0.369c0.199,0.072,0.407,0.108,0.619,0.108c0.331,0,0.656-0.09,0.94-0.262
		l0.355-0.216h1.691c0.062,0,0.147-0.034,0.192-0.075l0.854-0.803h0.107c0.007,0.001,0.014,0.004,0.022,0.004h1.036
		c0.077,0,0.192-0.031,0.258-0.069l0.97-0.57l0.35,0.065l0.209,0.04c0.101,0.019,0.204,0.027,0.309,0.027
		c0.085,0,0.171-0.006,0.259-0.02l8.364-1.253c0.493-0.073,0.928-0.334,1.225-0.736c0.297-0.401,0.42-0.894,0.346-1.387
		c-0.059-0.391-0.242-0.737-0.503-1.008l0.286-1.3c0.016-0.075,0.092-0.135,0.168-0.135h0.457c0.076,0,0.138-0.062,0.138-0.138
		v-0.587c0-0.075,0.062-0.138,0.139-0.138h8.593c0.076,0,0.139-0.062,0.139-0.138V9.769C39.235,9.692,39.173,9.63,39.097,9.63z
		 M21.778,11.633h0.154c-0.014,0.105-0.022,0.211-0.021,0.318c0.003,0.147,0.024,0.299,0.083,0.437
		c0.058,0.139,0.164,0.251,0.285,0.305c-0.088-0.102-0.121-0.226-0.116-0.342c0.004-0.117,0.04-0.23,0.088-0.339
		c0.049-0.108,0.11-0.213,0.18-0.312c0.016-0.022,0.031-0.045,0.049-0.067h1.337c0,0.009,0.001,0.017,0.001,0.024
		c0,0.736-0.599,1.336-1.336,1.336h-0.704V11.633z M21.454,13.269h0.324h0.704c0.891,0,1.612-0.721,1.612-1.611
		c0-0.008-0.001-0.016-0.002-0.024h0.404c0.039,0.341,0.066,0.821,0.025,1.349l-3.094,0.463
		C21.44,13.387,21.448,13.328,21.454,13.269z M16.331,12.854l-3.916,2.368L10.75,13.95c0.007-0.05,0.014-0.099,0.022-0.155
		c0.17-1.18-0.021-2.366-0.508-3.386L16.331,12.854z M17.571,16.532c-0.003,0.014-0.017,0.022-0.024,0.035l-0.106-0.02l0.149-0.09
		L17.571,16.532z M12.998,18.61c-0.33,0.199-0.744,0.238-1.101,0.109l-7.242-2.656c-0.622-0.228-1.117-0.684-1.396-1.284
		c-0.279-0.602-0.307-1.274-0.079-1.896c0.357-0.973,1.292-1.627,2.328-1.627c0.291,0,0.578,0.052,0.854,0.152
		c0.227,0.084,0.453,0.208,0.652,0.358l5.364,4.101l6.539-3.953c0.208-0.126,0.446-0.193,0.688-0.193
		c0.473,0,0.899,0.241,1.144,0.646c0.38,0.629,0.178,1.45-0.452,1.831L12.998,18.61z M20.201,16.865l0.591-2.375
		c0.164-0.136,0.299-0.295,0.406-0.472l3.254-0.487c-0.111,0.635-0.338,1.299-0.785,1.864c-0.453,0.572-1.078,0.983-1.869,1.23
		L20.201,16.865z M26.879,15.864l-4.05,0.607c1.245-0.731,1.745-1.909,1.916-2.985l2.696-0.403L26.879,15.864z M27.554,12.526
		l-2.748,0.412c0.034-0.507,0.01-0.967-0.029-1.306h2.819c0.077,0,0.127,0.061,0.111,0.136L27.554,12.526z M29.045,15.146
		c-0.068,0.093-0.15,0.171-0.237,0.241l0.355-1.62c0.06,0.122,0.107,0.25,0.128,0.388C29.345,14.507,29.257,14.858,29.045,15.146z"
		/>
</g>
</svg>
