<?xml version="1.0" encoding="iso-8859-1"?>
<!-- Generator: Adobe Illustrator 16.0.0, SVG Export Plug-In . SVG Version: 6.00 Build 0)  -->
<!DOCTYPE svg PUBLIC "-//W3C//DTD SVG 1.1//EN" "http://www.w3.org/Graphics/SVG/1.1/DTD/svg11.dtd">
<svg version="1.1" id="Layer_1" xmlns="http://www.w3.org/2000/svg" xmlns:xlink="http://www.w3.org/1999/xlink" x="0px" y="0px"
	 width="52.412px" height="48.729px" viewBox="0 0 52.412 48.729" style="enable-background:new 0 0 52.412 48.729;"
	 xml:space="preserve">
<path style="fill:#C05758;" d="M51.326,26.318c-0.034-0.671-0.326-1.649-0.666-2.228L41.25,8.046
	c-0.412-0.705-0.691-1.187-0.803-1.384c-0.022-0.348-0.229-0.378-2.163-0.656l-4.806-0.69c-0.679-0.097-1.252-0.759-1.252-1.443
	V0.534C32.227,0.239,31.989,0,31.695,0h-4.956c-0.296,0-0.534,0.239-0.534,0.534C26.205,0.239,25.966,0,25.671,0h-4.955
	c-0.295,0-0.533,0.239-0.533,0.534v3.335c0,0.686-0.573,1.348-1.251,1.445l-4.791,0.69c-0.474,0.067-0.9,0.132-1.209,0.181
	c-0.475,0.074-0.865,0.136-0.936,0.468c-0.105,0.188-0.387,0.675-0.808,1.391L1.75,24.091c-0.339,0.579-0.633,1.558-0.667,2.228
	L0,47.433c-0.015,0.283,0.195,0.529,0.478,0.558l7.04,0.734c0.143,0.016,0.286-0.027,0.397-0.121c0.11-0.091,0.179-0.225,0.19-0.368
	L9.47,30.347c0.038-0.493,0.311-1.288,0.582-1.702l1.628-2.471l-0.339,21.211c-0.002,0.142,0.054,0.28,0.153,0.382
	c0.1,0.103,0.237,0.159,0.381,0.159h28.723c0.144,0,0.281-0.057,0.381-0.159c0.1-0.102,0.154-0.24,0.153-0.383l-0.355-21.14
	l1.58,2.4c0.272,0.413,0.545,1.209,0.582,1.702l1.366,17.889c0.012,0.144,0.08,0.277,0.19,0.368
	c0.096,0.082,0.217,0.125,0.342,0.125c0.019,0,0.037-0.001,0.055-0.004l7.04-0.734c0.283-0.028,0.493-0.274,0.479-0.558
	L51.326,26.318z M7.87,37.304c-0.386-0.841-0.778-1.376-1.888-1.287c-1.737,0.138-1.019,1.424-1.944,2.899
	c-0.927,1.478-0.158,2.324-1.748,3.04c-0.373,0.169-0.683,0.248-0.954,0.281l0.345-6.726c0.246-0.36,0.109-1.127,0.808-1.66
	c1.019-0.776,1.366-0.348,2.543-0.854c1.294-0.557,2.255-0.117,3.172-0.063L7.87,37.304z M9.161,28.059
	c-0.006,0.01-0.012,0.021-0.019,0.031c-1.312-0.765-1.914-0.324-3.6,0.085c-1.811,0.44-1.995,3.258-3.61,2.413l0.217-4.215
	c0.026-0.507,0.266-1.305,0.522-1.742l2.789-4.74c0.029,0.021,0.061,0.038,0.092,0.063c1.218,1.002,1.195,1.032,2.414,2.036
	c1.222,1.004,1.196,1.034,2.417,2.038c0.401,0.33,0.612,0.683,0.771,1.003L9.161,28.059z M13.868,46.859
	c-0.201-0.908,0.055-1.243-0.842-2.052c-0.221-0.199-0.403-0.338-0.568-0.45l0.047-3.034c0.894,0.052,0.875-0.446,2.178-0.958
	c1.574-0.616,1.844,0.071,3.419-0.546c1.575-0.618,1.513-0.78,3.087-1.398c0.867-0.341,1.466-0.284,1.926-0.429
	c-0.096,0.315-0.197,0.674-0.353,1.289c-0.37,1.478-1.551,0.674-0.804,2c1.003,1.783,0.98,1.209,2.381,2.701
	c1.168,1.243,1.436,2.296,2.102,2.877H13.868z M27.086,30.38c-1.644,0.295-1.517-0.618-2.762,0.493
	c-1.049,0.938-1.858,0.565-2.241,1.686c0.055-0.903,0.261-1.726-0.662-2.296c-1.667-1.03-2.499,1.052-4.444,0.815
	s-2.317-2.73-4.193-2.161c-0.03,0.01-0.052,0.023-0.08,0.034l0.045-2.845c1.265-0.138,1.298-0.668,2.003-1.808
	c0.726-1.174,1.833-1.493,1.649-2.86c-0.203-1.528-2.006-0.914-3.041-2.058c-1.035-1.141-1.703-0.84-1.612-2.378
	c0.079-1.327,0.636-0.996,1.778-1.676c1.143-0.681,3.229,0.17,3.041-1.146c-0.194-1.365-1.121-1.269-2.293-1.362
	c0.492-0.381,0.492-0.574,1.024-1.5c0.639-1.106,1.3-0.881,1.3-2.158c0-0.793,0.397-1.741,0.437-2.494l2.05-0.297
	c0.975-0.14,1.771-0.878,2.051-1.797c-0.045,0.626,0.003,1.121,0.729,1.655c1.246,0.916,1.78-0.013,3.273-0.265v8.324
	c0,0.239,0.082,0.459,0.217,0.637c-0.172,0.267-0.409,0.539-0.83,0.825c-1.357,0.926-1.485,0.738-2.844,1.665
	c-1.357,0.926-1.917-0.558-2.115,1.074c-0.209,1.713-0.269,1.728,0.698,2.759c1.182,1.259,0.407,1.865,1.498,3.204
	c1.149,1.41,2.753,0.096,3.911,1.498c1.157,1.403-0.337,3.934,1.451,4.268c0.32,0.06,0.592,0.059,0.833,0.012
	C27.719,30.269,27.443,30.315,27.086,30.38z M41.511,19.353c-1.633,0.998,0.845,3.044,0.057,4.788
	c-0.132,0.295-0.285,0.513-0.445,0.689l-0.465-0.705c-0.101-0.153-0.27-0.24-0.445-0.24c-0.052,0-0.105,0.008-0.157,0.023
	c-0.227,0.07-0.38,0.282-0.376,0.519l0.243,14.492c-0.168,0.178-0.384,0.37-0.707,0.595c-1.215,0.845-2.275,0.304-2.581,1.751
	c-0.484,2.301,0.226,2.542,1.22,4.674c0.372,0.796,0.905,0.806,1.49,0.921H28.652c0.44-0.817,0.318-2.457,1.137-3.134
	c1.118-0.927,1.352-0.646,2.471-1.571c1.12-0.926,2.058,0.206,3.178-0.72c1.119-0.929,2.501-1.386,2.501-2.84
	c0-1.493-2.224-0.956-3.344-1.944c-1.118-0.988-0.932-0.515-0.932-2.008c0-1.434,0.447-0.138,1.566-1.032
	c1.119-0.897,0.787-0.863,0.441-2.254c-0.519-2.096-0.018-2.636-2.074-3.294c-1.589-0.51-1.57,1.479-3.213,1.773
	c-1.271,0.229-1.566,0.252-2.395,0.389c1.062-0.221,1.51-1.332,2.77-2.059c1.555-0.895,0.802-1.608,1.849-3.063
	c0.956-1.325,1.562-0.902,1.815-2.518c0.25-1.613,1.09-1.951,0.409-3.436c-0.632-1.378-2.249,0.507-3.576-0.228
	c-1.327-0.731-1.118-1.355-1.931-2.636c-0.729-1.147,0.512-1.282,0.512-2.641s0.673-2.341-0.622-2.753
	c-1.3-0.413-1.229,0.756-1.942,1.695V5.016c0.241-0.115,0.537-0.215,0.954-0.277c1.56-0.232,1.676,0.55,3.235,0.318
	c0.005,0,0.01,0,0.015-0.001c0.375,0.686,1.053,1.202,1.85,1.317l4.807,0.689c0.689,0.1,1.181,0.175,1.44,0.218
	c0.135,0.241,0.364,0.634,0.757,1.305l0.006,0.01c-0.69,1.063-1.432,0.709-1.506,2.372c-0.063,1.44-0.603,1.762,0.428,2.771
	c1.029,1.01,2.185-0.169,3.213,0.841c1.03,1.01,0.488,1.594,1.698,2.376c0.476,0.309,0.852,0.317,1.211,0.239l2.786,4.753
	c-0.27,0.078-0.599,0.126-1.052,0.126c-1.369,0-1.406-0.178-2.687-0.656C43.146,20.938,42.678,18.638,41.511,19.353z M49.284,44.409
	c-1.428,0.5-2.097-0.028-3.015,0.264c0.112-0.269,0.203-0.613,0.278-1.102c0.309-1.972-0.909-1.472-1.65-3.324
	c-0.736-1.837,1.229-3.52-0.471-4.441l-0.423-5.54c-0.015-0.178-0.048-0.375-0.097-0.581c1.031,0.544,1.086,1.126,2.59,1.354
	c1.762,0.268,1.71,0.097,3.417-0.408c0.204-0.062,0.388-0.108,0.558-0.146l0.656,12.777C50.693,43.452,50.407,44.017,49.284,44.409z
	"/>
</svg>
