<?xml version="1.0" encoding="iso-8859-1"?>
<!-- Generator: Adobe Illustrator 16.0.0, SVG Export Plug-In . SVG Version: 6.00 Build 0)  -->
<!DOCTYPE svg PUBLIC "-//W3C//DTD SVG 1.1//EN" "http://www.w3.org/Graphics/SVG/1.1/DTD/svg11.dtd">
<svg version="1.1" id="Layer_1" xmlns="http://www.w3.org/2000/svg" xmlns:xlink="http://www.w3.org/1999/xlink" x="0px" y="0px"
	 width="42.585px" height="42.584px" viewBox="0 0 42.585 42.584" style="enable-background:new 0 0 42.585 42.584;"
	 xml:space="preserve">
<path style="fill:#C05758;" d="M38.098,22.868c0.651,0.205,1.367,0.219,2.068,0c1.818-0.571,2.83-2.509,2.26-4.328
	c-0.571-1.818-2.509-2.83-4.328-2.259c-1.913,0.601-4.172,2.251-5.74,1.135c-0.562-0.399-0.854-1.278-0.665-1.925
	c0.581-1.988,3.591-2.124,5.646-2.926c1.412-0.557,2.616-1.686,3.211-3.21c1.135-2.908-0.303-6.184-3.211-7.319
	c-2.906-1.134-6.184,0.303-7.318,3.211c-0.803,2.055-0.938,5.065-2.926,5.646c-0.646,0.188-1.525-0.104-1.925-0.665
	c-1.116-1.568,0.534-3.827,1.135-5.74c0.205-0.651,0.22-1.368,0-2.068c-0.571-1.819-2.509-2.83-4.328-2.259s-2.83,2.508-2.26,4.328
	c0.602,1.913,2.251,4.172,1.136,5.74c-0.625,0.879-1.892,1.386-2.925,1.212c-1.898-0.321-2.329-3.085-3.257-4.862
	c-0.315-0.605-0.812-1.123-1.462-1.462c-1.69-0.883-3.775-0.228-4.658,1.462c-0.882,1.689-0.228,3.775,1.462,4.658
	c1.777,0.928,4.542,1.358,4.862,3.257c0.113,0.666-0.29,1.501-0.891,1.831c-1.817,0.995-4.041-1.038-6.061-1.924
	c-1.392-0.604-3.041-0.658-4.541,0c-2.858,1.254-4.159,4.587-2.905,7.445c1.253,2.858,4.586,4.159,7.445,2.905
	c2.02-0.885,4.244-2.918,6.061-1.923c0.601,0.329,1.004,1.165,0.891,1.831c-0.32,1.898-3.084,2.328-4.862,3.257
	c-0.605,0.315-1.123,0.812-1.462,1.462c-0.882,1.689-0.228,3.775,1.462,4.658c1.689,0.883,3.775,0.228,4.658-1.463
	c0.928-1.777,1.358-4.541,3.257-4.861c0.666-0.113,1.501,0.289,1.831,0.891c0.994,1.818-1.038,4.041-1.924,6.062
	c-0.604,1.392-0.658,3.04,0,4.54c1.253,2.858,4.587,4.16,7.446,2.905c2.857-1.253,4.158-4.587,2.904-7.445
	c-0.886-2.021-2.918-4.243-1.924-6.062c0.146-0.264,0.545-0.428,0.832-0.345c1.988,0.581,2.123,3.591,2.926,5.647
	c0.557,1.41,1.686,2.615,3.21,3.209c2.908,1.135,6.185-0.302,7.319-3.209c1.135-2.908-0.303-6.186-3.211-7.32
	c-2.055-0.803-5.064-0.938-5.646-2.926c-0.189-0.646,0.104-1.525,0.665-1.925C33.926,20.616,36.185,22.266,38.098,22.868z"/>
</svg>
